<svg width="283" height="145" viewBox="0 0 283 145" fill="none" xmlns="http://www.w3.org/2000/svg">
<path d="M21.888 127.528C20.376 131.392 17.208 133.348 12.384 133.396C10.296 133.396 8.448 132.952 6.84 132.064C5.232 131.152 3.984 129.904 3.096 128.32C2.208 126.736 1.764 124.912 1.764 122.848C1.764 120.832 2.196 119.032 3.06 117.448C3.948 115.864 5.196 114.628 6.804 113.74C8.436 112.828 10.308 112.372 12.42 112.372C13.932 112.372 15.288 112.66 16.488 113.236C17.688 113.788 18.624 114.556 19.296 115.54V112.732H21.456V118.852L19.512 118.924C18.768 117.388 17.832 116.272 16.704 115.576C15.576 114.88 14.196 114.532 12.564 114.532C11.004 114.532 9.624 114.904 8.424 115.648C7.248 116.368 6.336 117.352 5.688 118.6C5.04 119.848 4.716 121.252 4.716 122.812C4.716 124.492 5.052 125.968 5.724 127.24C6.396 128.512 7.332 129.496 8.532 130.192C9.732 130.888 11.076 131.236 12.564 131.236C14.196 131.236 15.648 130.852 16.92 130.084C18.216 129.316 19.152 128.104 19.728 126.448L21.888 127.528ZM36.6854 133.396C34.5254 133.396 32.6054 132.928 30.9254 131.992C29.2694 131.032 27.9854 129.76 27.0734 128.176C26.1614 126.568 25.7054 124.816 25.7054 122.92C25.7054 121.024 26.1614 119.272 27.0734 117.664C27.9854 116.032 29.2694 114.748 30.9254 113.812C32.6054 112.852 34.5254 112.372 36.6854 112.372C38.8454 112.372 40.7534 112.852 42.4094 113.812C44.0894 114.748 45.3854 116.032 46.2974 117.664C47.2094 119.272 47.6654 121.024 47.6654 122.92C47.6654 124.816 47.2094 126.568 46.2974 128.176C45.3854 129.76 44.0894 131.032 42.4094 131.992C40.7534 132.928 38.8454 133.396 36.6854 133.396ZM36.6854 131.236C38.2934 131.236 39.6854 130.864 40.8614 130.12C42.0374 129.376 42.9374 128.38 43.5614 127.132C44.2094 125.86 44.5334 124.456 44.5334 122.92C44.5334 121.36 44.2094 119.944 43.5614 118.672C42.9374 117.4 42.0374 116.392 40.8614 115.648C39.6854 114.88 38.2934 114.496 36.6854 114.496C35.0774 114.496 33.6854 114.88 32.5094 115.648C31.3334 116.392 30.4334 117.412 29.8094 118.708C29.1854 119.98 28.8734 121.396 28.8734 122.956C28.8734 124.516 29.1854 125.92 29.8094 127.168C30.4334 128.416 31.3334 129.412 32.5094 130.156C33.6854 130.876 35.0774 131.236 36.6854 131.236ZM50.9408 131.092H53.8208V114.64H50.9408V112.732H57.2048L68.7968 129.112V114.64H65.9168V112.732H73.8728V114.64H71.0648V133H68.1488L56.0528 115.756V131.092H58.9328V133H50.9408V131.092ZM80.6445 131.092H83.4525V114.64H77.9085V119.788H75.7125V112.732H94.0005V119.788H91.8045V114.64H86.3685V131.092H89.1765V133H80.6445V131.092ZM96.3259 131.092H99.1339V114.64H96.3259V112.732H106.982C109.142 112.732 110.822 113.188 112.022 114.1C113.246 114.988 113.858 116.296 113.858 118.024C113.858 121.096 112.118 122.896 108.638 123.424L113.282 131.092H116.27V133H111.266L105.83 123.712H103.346V121.732H106.514C108.122 121.732 109.262 121.384 109.934 120.688C110.606 119.968 110.942 119.092 110.942 118.06C110.942 117.052 110.606 116.236 109.934 115.612C109.286 114.964 108.314 114.64 107.018 114.64H102.086V131.092H104.894V133H96.3259V131.092ZM129.955 133.396C127.795 133.396 125.875 132.928 124.195 131.992C122.539 131.032 121.255 129.76 120.343 128.176C119.431 126.568 118.975 124.816 118.975 122.92C118.975 121.024 119.431 119.272 120.343 117.664C121.255 116.032 122.539 114.748 124.195 113.812C125.875 112.852 127.795 112.372 129.955 112.372C132.115 112.372 134.023 112.852 135.679 113.812C137.359 114.748 138.655 116.032 139.567 117.664C140.479 119.272 140.935 121.024 140.935 122.92C140.935 124.816 140.479 126.568 139.567 128.176C138.655 129.76 137.359 131.032 135.679 131.992C134.023 132.928 132.115 133.396 129.955 133.396ZM129.955 131.236C131.563 131.236 132.955 130.864 134.131 130.12C135.307 129.376 136.207 128.38 136.831 127.132C137.479 125.86 137.803 124.456 137.803 122.92C137.803 121.36 137.479 119.944 136.831 118.672C136.207 117.4 135.307 116.392 134.131 115.648C132.955 114.88 131.563 114.496 129.955 114.496C128.347 114.496 126.955 114.88 125.779 115.648C124.603 116.392 123.703 117.412 123.079 118.708C122.455 119.98 122.143 121.396 122.143 122.956C122.143 124.516 122.455 125.92 123.079 127.168C123.703 128.416 124.603 129.412 125.779 130.156C126.955 130.876 128.347 131.236 129.955 131.236ZM144.138 131.092H146.946V114.64H144.138V112.732H152.706V114.64H149.898V131.092H158.322V124.864H160.698V133H144.138V131.092ZM174.021 131.092H176.829V114.64H174.021V112.732H184.029C186.501 112.732 188.385 113.224 189.681 114.208C190.977 115.192 191.625 116.62 191.625 118.492C191.625 120.484 190.953 122.008 189.609 123.064C188.289 124.096 186.369 124.612 183.849 124.612H181.149V122.704H183.741C185.301 122.704 186.501 122.344 187.341 121.624C188.181 120.904 188.601 119.872 188.601 118.528C188.601 117.28 188.229 116.32 187.485 115.648C186.765 114.976 185.721 114.64 184.353 114.64H179.781V131.092H182.589V133H174.021V131.092ZM193.91 131.092H196.502L202.37 114.64H200.102V112.732H210.002V114.64H207.662L213.71 131.092H216.158V133H207.914V131.092H210.614L208.562 125.188H201.218L199.202 131.092H201.902V133H193.91V131.092ZM207.986 123.28L205.034 114.676H204.818L201.794 123.28H207.986ZM218.671 131.092H221.551V114.64H218.671V112.732H224.935L236.527 129.112V114.64H233.647V112.732H241.603V114.64H238.795V133H235.879L223.783 115.756V131.092H226.663V133H218.671V131.092ZM243.947 131.092H246.755V114.64H243.947V112.732H261.587V118.744H259.319V114.64H249.707V121.516H256.007V119.14H257.483V125.908H256.007V123.496H249.707V131.092H259.499V126.88H261.767V133H243.947V131.092ZM264.9 131.092H267.708V114.64H264.9V112.732H273.468V114.64H270.66V131.092H279.084V124.864H281.46V133H264.9V131.092Z" fill="black"/>
<mask id="path-2-inside-1" fill="white">
<path d="M114.034 88.8184H116.637C118.967 88.8184 120.299 87.8197 120.299 85.9132C120.299 84.5211 119.376 83.704 117.893 83.4922V83.4316C119.073 83.129 119.663 82.3119 119.663 81.2527C119.663 79.6185 118.513 78.8317 116.455 78.8317H114.034V88.8184ZM114.518 83.2803V79.2553H116.243C118.241 79.2553 119.179 79.8303 119.179 81.2527C119.179 82.5843 118.332 83.2803 116.153 83.2803H114.518ZM114.518 88.3947V83.704H116.455C118.604 83.704 119.814 84.4303 119.814 85.9434C119.814 87.6382 118.604 88.3947 116.455 88.3947H114.518ZM126.194 88.8184H126.678V84.0974H128.918L131.732 88.8184H132.307L129.463 84.0671C131.127 83.9158 132.156 82.9928 132.156 81.404C132.156 79.558 130.915 78.8317 128.948 78.8317H126.194V88.8184ZM126.678 83.6737V79.2553H128.767C130.613 79.2553 131.642 79.8303 131.642 81.404C131.642 82.9474 130.613 83.6737 128.767 83.6737H126.678ZM140.957 89C143.105 89 144.649 86.9421 144.649 83.7948C144.649 80.6474 143.105 78.6501 140.957 78.6501C138.808 78.6501 137.265 80.6474 137.265 83.7948C137.265 86.9421 138.808 89 140.957 89ZM140.957 88.5461C139.065 88.5461 137.779 86.6698 137.779 83.7948C137.779 80.9198 139.065 79.104 140.957 79.104C142.848 79.104 144.134 80.9198 144.134 83.7948C144.134 86.6698 142.848 88.5461 140.957 88.5461ZM153.056 89C155.205 89 156.748 86.9421 156.748 83.7948C156.748 80.6474 155.205 78.6501 153.056 78.6501C150.908 78.6501 149.364 80.6474 149.364 83.7948C149.364 86.9421 150.908 89 153.056 89ZM153.056 88.5461C151.165 88.5461 149.879 86.6698 149.879 83.7948C149.879 80.9198 151.165 79.104 153.056 79.104C154.948 79.104 156.234 80.9198 156.234 83.7948C156.234 86.6698 154.948 88.5461 153.056 88.5461ZM161.872 88.8184H162.356L164.202 85.6106C164.475 85.1263 164.747 84.6421 165.08 84.0369H165.141C165.504 84.6421 165.806 85.1263 166.079 85.6106L167.925 88.8184H168.439L165.413 83.6737L168.227 78.8317H167.743L165.988 81.9185C165.716 82.3724 165.534 82.7053 165.231 83.25H165.171C164.838 82.7053 164.626 82.3724 164.354 81.9185L162.598 78.8317H162.084L164.898 83.6435L161.872 88.8184Z"/>
</mask>
<path d="M114.034 88.8184H116.637C118.967 88.8184 120.299 87.8197 120.299 85.9132C120.299 84.5211 119.376 83.704 117.893 83.4922V83.4316C119.073 83.129 119.663 82.3119 119.663 81.2527C119.663 79.6185 118.513 78.8317 116.455 78.8317H114.034V88.8184ZM114.518 83.2803V79.2553H116.243C118.241 79.2553 119.179 79.8303 119.179 81.2527C119.179 82.5843 118.332 83.2803 116.153 83.2803H114.518ZM114.518 88.3947V83.704H116.455C118.604 83.704 119.814 84.4303 119.814 85.9434C119.814 87.6382 118.604 88.3947 116.455 88.3947H114.518ZM126.194 88.8184H126.678V84.0974H128.918L131.732 88.8184H132.307L129.463 84.0671C131.127 83.9158 132.156 82.9928 132.156 81.404C132.156 79.558 130.915 78.8317 128.948 78.8317H126.194V88.8184ZM126.678 83.6737V79.2553H128.767C130.613 79.2553 131.642 79.8303 131.642 81.404C131.642 82.9474 130.613 83.6737 128.767 83.6737H126.678ZM140.957 89C143.105 89 144.649 86.9421 144.649 83.7948C144.649 80.6474 143.105 78.6501 140.957 78.6501C138.808 78.6501 137.265 80.6474 137.265 83.7948C137.265 86.9421 138.808 89 140.957 89ZM140.957 88.5461C139.065 88.5461 137.779 86.6698 137.779 83.7948C137.779 80.9198 139.065 79.104 140.957 79.104C142.848 79.104 144.134 80.9198 144.134 83.7948C144.134 86.6698 142.848 88.5461 140.957 88.5461ZM153.056 89C155.205 89 156.748 86.9421 156.748 83.7948C156.748 80.6474 155.205 78.6501 153.056 78.6501C150.908 78.6501 149.364 80.6474 149.364 83.7948C149.364 86.9421 150.908 89 153.056 89ZM153.056 88.5461C151.165 88.5461 149.879 86.6698 149.879 83.7948C149.879 80.9198 151.165 79.104 153.056 79.104C154.948 79.104 156.234 80.9198 156.234 83.7948C156.234 86.6698 154.948 88.5461 153.056 88.5461ZM161.872 88.8184H162.356L164.202 85.6106C164.475 85.1263 164.747 84.6421 165.08 84.0369H165.141C165.504 84.6421 165.806 85.1263 166.079 85.6106L167.925 88.8184H168.439L165.413 83.6737L168.227 78.8317H167.743L165.988 81.9185C165.716 82.3724 165.534 82.7053 165.231 83.25H165.171C164.838 82.7053 164.626 82.3724 164.354 81.9185L162.598 78.8317H162.084L164.898 83.6435L161.872 88.8184Z" fill="#3A3A3A"/>
<path d="M114.034 88.8184H104.034V98.8184H114.034V88.8184ZM117.893 83.4922H107.893V92.1651L116.479 93.3917L117.893 83.4922ZM117.893 83.4316L115.409 73.745L107.893 75.6722V83.4316H117.893ZM114.034 78.8317V68.8317H104.034V78.8317H114.034ZM114.518 83.2803H104.518V93.2803H114.518V83.2803ZM114.518 79.2553V69.2553H104.518V79.2553H114.518ZM114.518 88.3947H104.518V98.3947H114.518V88.3947ZM114.518 83.704V73.704H104.518V83.704H114.518ZM126.194 88.8184H116.194V98.8184H126.194V88.8184ZM126.678 88.8184V98.8184H136.678V88.8184H126.678ZM126.678 84.0974V74.0974H116.678V84.0974H126.678ZM128.918 84.0974L137.507 78.9767L134.598 74.0974H128.918V84.0974ZM131.732 88.8184L123.143 93.9391L126.052 98.8184H131.732V88.8184ZM132.307 88.8184V98.8184H149.95L140.887 83.6814L132.307 88.8184ZM129.463 84.0671L128.557 74.1082L112.707 75.5491L120.883 89.2041L129.463 84.0671ZM126.194 78.8317V68.8317H116.194V78.8317H126.194ZM126.678 83.6737H116.678V93.6737H126.678V83.6737ZM126.678 79.2553V69.2553H116.678V79.2553H126.678ZM161.872 88.8184L153.24 83.7702L144.44 98.8184H161.872V88.8184ZM162.356 88.8184V98.8184H168.139L171.024 93.8063L162.356 88.8184ZM164.202 85.6106L172.87 90.5984L172.894 90.5559L172.918 90.5132L164.202 85.6106ZM165.08 84.0369V74.0369H159.167L156.318 79.2176L165.08 84.0369ZM165.141 84.0369L173.715 78.8919L170.802 74.0369H165.141V84.0369ZM166.079 85.6106L157.363 90.5132L157.387 90.5559L157.411 90.5984L166.079 85.6106ZM167.925 88.8184L159.257 93.8063L162.142 98.8184H167.925V88.8184ZM168.439 88.8184V98.8184H185.923L177.059 83.7482L168.439 88.8184ZM165.413 83.6737L156.767 78.6484L153.829 83.7039L156.794 88.744L165.413 83.6737ZM168.227 78.8317L176.873 83.857L185.607 68.8317H168.227V78.8317ZM167.743 78.8317V68.8317H161.926L159.05 73.8886L167.743 78.8317ZM165.988 81.9185L174.563 87.0635L174.623 86.9632L174.681 86.8616L165.988 81.9185ZM165.231 83.25V93.25H171.115L173.973 88.1065L165.231 83.25ZM165.171 83.25L156.638 88.4646L159.562 93.25H165.171V83.25ZM164.354 81.9185L155.661 86.8616L155.719 86.9632L155.779 87.0635L164.354 81.9185ZM162.598 78.8317L171.291 73.8886L168.416 68.8317H162.598V78.8317ZM162.084 78.8317V68.8317H144.65L153.452 83.8806L162.084 78.8317ZM164.898 83.6435L173.531 88.6917L176.483 83.643L173.53 78.5946L164.898 83.6435ZM114.034 98.8184H116.637V78.8184H114.034V98.8184ZM116.637 98.8184C119.023 98.8184 122.46 98.3364 125.501 95.9589C128.936 93.2733 130.299 89.4169 130.299 85.9132H110.299C110.299 85.2253 110.421 84.2208 110.921 83.1001C111.437 81.9423 112.23 80.9474 113.182 80.2027C114.975 78.8011 116.581 78.8184 116.637 78.8184V98.8184ZM130.299 85.9132C130.299 82.8267 129.187 79.5848 126.624 77.0919C124.253 74.785 121.444 73.8979 119.307 73.5927L116.479 93.3917C115.824 93.2982 114.219 92.9256 112.679 91.4283C110.949 89.7449 110.299 87.6076 110.299 85.9132H130.299ZM127.893 83.4922V83.4316H107.893V83.4922H127.893ZM120.376 93.1183C122.707 92.5206 125.195 91.2009 127.075 88.8147C128.96 86.4233 129.663 83.6824 129.663 81.2527H109.663C109.663 79.8822 110.072 78.0794 111.366 76.4371C112.656 74.7999 114.258 74.04 115.409 73.745L120.376 93.1183ZM129.663 81.2527C129.663 77.8151 128.283 73.9699 124.759 71.3759C121.77 69.1757 118.492 68.8317 116.455 68.8317V88.8317C116.362 88.8317 115.976 88.8257 115.399 88.6816C114.816 88.5358 113.892 88.2106 112.903 87.4828C111.861 86.7162 110.962 85.6551 110.37 84.372C109.8 83.1346 109.663 82.0156 109.663 81.2527H129.663ZM116.455 68.8317H114.034V88.8317H116.455V68.8317ZM104.034 78.8317V88.8184H124.034V78.8317H104.034ZM124.518 83.2803V79.2553H104.518V83.2803H124.518ZM114.518 89.2553H116.243V69.2553H114.518V89.2553ZM116.243 89.2553C116.704 89.2553 114.967 89.4051 112.928 88.0512C111.718 87.2473 110.643 86.0693 109.948 84.5888C109.296 83.198 109.179 81.972 109.179 81.2527H129.179C129.179 78.0415 127.908 73.9903 123.992 71.3901C120.985 69.3931 117.78 69.2553 116.243 69.2553V89.2553ZM109.179 81.2527C109.179 80.5497 109.289 79.3731 109.891 78.0318C110.533 76.6042 111.542 75.4215 112.731 74.5855C114.788 73.1393 116.565 73.2803 116.153 73.2803V93.2803C117.919 93.2803 121.209 93.0733 124.235 90.9462C128.039 88.2709 129.179 84.278 129.179 81.2527H109.179ZM116.153 73.2803H114.518V93.2803H116.153V73.2803ZM124.518 88.3947V83.704H104.518V88.3947H124.518ZM114.518 93.704H116.455V73.704H114.518V93.704ZM116.455 93.704C116.445 93.704 116.379 93.7037 116.265 93.6928C116.152 93.682 115.969 93.6586 115.731 93.6061C115.282 93.507 114.448 93.2622 113.497 92.6446C112.486 91.9887 111.46 90.9821 110.733 89.5936C110.017 88.2274 109.814 86.9182 109.814 85.9434H129.814C129.814 82.034 127.988 78.2068 124.385 75.868C121.468 73.975 118.364 73.704 116.455 73.704V93.704ZM109.814 85.9434C109.814 85.1782 109.954 84.0238 110.561 82.7469C111.192 81.4204 112.14 80.3606 113.195 79.6199C114.187 78.9235 115.088 78.6349 115.605 78.5138C116.12 78.3932 116.437 78.3947 116.455 78.3947V98.3947C118.399 98.3947 121.669 98.1073 124.686 95.9893C128.346 93.4204 129.814 89.498 129.814 85.9434H109.814ZM116.455 78.3947H114.518V98.3947H116.455V78.3947ZM126.194 98.8184H126.678V78.8184H126.194V98.8184ZM136.678 88.8184V84.0974H116.678V88.8184H136.678ZM126.678 94.0974H128.918V74.0974H126.678V94.0974ZM120.328 89.2181L123.143 93.9391L140.322 83.6977L137.507 78.9767L120.328 89.2181ZM131.732 98.8184H132.307V78.8184H131.732V98.8184ZM140.887 83.6814L138.042 78.9302L120.883 89.2041L123.728 93.9554L140.887 83.6814ZM130.368 94.0261C132.759 93.8087 135.821 92.9339 138.372 90.4763C141.079 87.868 142.156 84.4914 142.156 81.404H122.156C122.156 79.9054 122.719 77.7848 124.495 76.073C126.116 74.5119 127.831 74.1743 128.557 74.1082L130.368 94.0261ZM142.156 81.404C142.156 78.0083 140.856 74.0698 137.246 71.3929C134.199 69.1336 130.868 68.8317 128.948 68.8317V88.8317C128.857 88.8317 128.466 88.8266 127.884 88.6829C127.293 88.537 126.344 88.2075 125.334 87.4583C124.265 86.6658 123.377 85.5846 122.808 84.3177C122.265 83.1087 122.156 82.0527 122.156 81.404H142.156ZM128.948 68.8317H126.194V88.8317H128.948V68.8317ZM116.194 78.8317V88.8184H136.194V78.8317H116.194ZM136.678 83.6737V79.2553H116.678V83.6737H136.678ZM126.678 89.2553H128.767V69.2553H126.678V89.2553ZM128.767 89.2553C128.749 89.2553 128.398 89.2578 127.842 89.1353C127.282 89.0119 126.275 88.7087 125.175 87.9409C123.991 87.1148 122.989 85.9494 122.351 84.5484C121.75 83.2291 121.642 82.0785 121.642 81.404H141.642C141.642 78.1946 140.413 74.1858 136.618 71.5382C133.589 69.4248 130.343 69.2553 128.767 69.2553V89.2553ZM121.642 81.404C121.642 79.7509 122.334 77.0834 124.808 75.1845C126.802 73.6547 128.641 73.6737 128.767 73.6737V93.6737C130.739 93.6737 134.015 93.3296 136.984 91.0508C140.435 88.4029 141.642 84.6005 141.642 81.404H121.642ZM128.767 73.6737H126.678V93.6737H128.767V73.6737ZM140.957 99C145.588 99 149.396 96.6496 151.721 93.4252C153.901 90.4001 154.649 86.8912 154.649 83.7948H134.649C134.649 83.7746 134.65 83.5752 134.746 83.235C134.84 82.8991 135.048 82.3528 135.496 81.7301C136.512 80.3215 138.474 79 140.957 79V99ZM154.649 83.7948C154.649 80.6974 153.9 77.1671 151.674 74.13C149.293 70.8827 145.475 68.6501 140.957 68.6501V88.6501C138.587 88.6501 136.615 87.4161 135.543 85.9544C135.074 85.3134 134.853 84.7436 134.752 84.3865C134.65 84.0267 134.649 83.8146 134.649 83.7948H154.649ZM140.957 68.6501C136.439 68.6501 132.62 70.8827 130.24 74.13C128.013 77.167 127.265 80.6974 127.265 83.7948H147.265C147.265 83.8146 147.263 84.0267 147.161 84.3865C147.06 84.7437 146.84 85.3134 146.37 85.9544C145.299 87.4161 143.326 88.6501 140.957 88.6501V68.6501ZM127.265 83.7948C127.265 86.8912 128.012 90.4001 130.193 93.4252C132.517 96.6496 136.326 99 140.957 99V79C143.439 79 145.402 80.3215 146.417 81.7301C146.866 82.3528 147.074 82.8991 147.168 83.235C147.263 83.5752 147.265 83.7746 147.265 83.7948H127.265ZM140.957 78.5461C142.195 78.5461 143.474 78.8687 144.622 79.5249C145.741 80.1637 146.49 80.9751 146.953 81.6622C147.406 82.3354 147.605 82.9119 147.691 83.2449C147.779 83.5851 147.779 83.7809 147.779 83.7948H127.779C127.779 86.5787 128.382 89.8919 130.364 92.8349C132.521 96.0365 136.244 98.5461 140.957 98.5461V78.5461ZM147.779 83.7948C147.779 83.8081 147.779 84.0169 147.685 84.3773C147.592 84.732 147.381 85.3342 146.905 86.0285C146.417 86.7395 145.646 87.5467 144.525 88.1705C143.381 88.8074 142.135 89.104 140.957 89.104V69.104C136.374 69.104 132.634 71.4762 130.413 74.7141C128.382 77.6735 127.779 81.012 127.779 83.7948H147.779ZM140.957 89.104C139.778 89.104 138.532 88.8074 137.388 88.1705C136.267 87.5467 135.497 86.7395 135.009 86.0285C134.533 85.3342 134.321 84.732 134.229 84.3773C134.135 84.0169 134.134 83.8081 134.134 83.7948H154.134C154.134 81.012 153.531 77.6735 151.501 74.7141C149.279 71.4762 145.54 69.104 140.957 69.104V89.104ZM134.134 83.7948C134.134 83.7809 134.135 83.5851 134.223 83.2449C134.309 82.9119 134.507 82.3354 134.961 81.6622C135.424 80.9751 136.173 80.1637 137.291 79.5249C138.44 78.8687 139.718 78.5461 140.957 78.5461V98.5461C145.669 98.5461 149.393 96.0365 151.549 92.8349C153.531 89.8919 154.134 86.5787 154.134 83.7948H134.134ZM153.056 99C157.687 99 161.496 96.6496 163.82 93.4252C166.001 90.4001 166.748 86.8912 166.748 83.7948H146.748C146.748 83.7746 146.75 83.5752 146.845 83.235C146.939 82.8991 147.147 82.3528 147.596 81.7301C148.611 80.3215 150.574 79 153.056 79V99ZM166.748 83.7948C166.748 80.6974 165.999 77.167 163.773 74.13C161.393 70.8827 157.574 68.6501 153.056 68.6501V88.6501C150.687 88.6501 148.714 87.4161 147.643 85.9544C147.173 85.3134 146.953 84.7437 146.852 84.3865C146.75 84.0267 146.748 83.8146 146.748 83.7948H166.748ZM153.056 68.6501C148.538 68.6501 144.72 70.8827 142.339 74.13C140.113 77.167 139.364 80.6974 139.364 83.7948H159.364C159.364 83.8146 159.363 84.0267 159.261 84.3865C159.16 84.7437 158.939 85.3134 158.469 85.9544C157.398 87.4161 155.426 88.6501 153.056 88.6501V68.6501ZM139.364 83.7948C139.364 86.8912 140.112 90.4001 142.292 93.4252C144.617 96.6496 148.425 99 153.056 99V79C155.539 79 157.501 80.3215 158.516 81.7301C158.965 82.3528 159.173 82.8991 159.267 83.235C159.363 83.5752 159.364 83.7746 159.364 83.7948H139.364ZM153.056 78.5461C154.295 78.5461 155.573 78.8687 156.722 79.5249C157.84 80.1637 158.589 80.9751 159.052 81.6622C159.506 82.3354 159.704 82.9119 159.79 83.2449C159.878 83.5851 159.879 83.7809 159.879 83.7948H139.879C139.879 86.5787 140.482 89.8919 142.464 92.8349C144.62 96.0365 148.344 98.5461 153.056 98.5461V78.5461ZM159.879 83.7948C159.879 83.8081 159.878 84.0169 159.784 84.3773C159.692 84.732 159.48 85.3342 159.004 86.0285C158.516 86.7395 157.746 87.5467 156.625 88.1705C155.481 88.8074 154.235 89.104 153.056 89.104V69.104C148.473 69.104 144.733 71.4762 142.512 74.7141C140.482 77.6735 139.879 81.012 139.879 83.7948H159.879ZM153.056 89.104C151.878 89.104 150.632 88.8074 149.487 88.1705C148.367 87.5467 147.596 86.7395 147.108 86.0285C146.632 85.3342 146.421 84.732 146.328 84.3773C146.234 84.0169 146.234 83.8081 146.234 83.7948H166.234C166.234 81.012 165.631 77.6735 163.6 74.7141C161.379 71.4762 157.639 69.104 153.056 69.104V89.104ZM146.234 83.7948C146.234 83.7809 146.234 83.5851 146.322 83.2449C146.408 82.9119 146.607 82.3354 147.06 81.6622C147.523 80.9751 148.272 80.1637 149.39 79.5249C150.539 78.8687 151.818 78.5461 153.056 78.5461V98.5461C157.769 98.5461 161.492 96.0365 163.648 92.8349C165.631 89.8919 166.234 86.5787 166.234 83.7948H146.234ZM161.872 98.8184H162.356V78.8184H161.872V98.8184ZM171.024 93.8063L172.87 90.5984L155.535 80.6227L153.689 83.8306L171.024 93.8063ZM172.918 90.5132C173.191 90.0289 173.484 89.5075 173.842 88.8561L156.318 79.2176C156.01 79.7768 155.759 80.2238 155.487 80.7079L172.918 90.5132ZM165.08 94.0369H165.141V74.0369H165.08V94.0369ZM156.566 89.1819C157.056 89.9986 157.181 90.19 157.363 90.5132L174.794 80.7079C174.432 80.0627 173.952 79.2856 173.715 78.8919L156.566 89.1819ZM157.411 90.5984L159.257 93.8063L176.592 83.8306L174.746 80.6227L157.411 90.5984ZM167.925 98.8184H168.439V78.8184H167.925V98.8184ZM177.059 83.7482L174.032 78.6035L156.794 88.744L159.82 93.8887L177.059 83.7482ZM174.058 88.699L176.873 83.857L159.582 73.8064L156.767 78.6484L174.058 88.699ZM168.227 68.8317H167.743V88.8317H168.227V68.8317ZM159.05 73.8886L157.295 76.9754L174.681 86.8616L176.436 83.7747L159.05 73.8886ZM157.413 76.7735C157.034 77.4049 156.757 77.9129 156.49 78.3936L173.973 88.1065C174.311 87.4977 174.397 87.3399 174.563 87.0635L157.413 76.7735ZM165.231 73.25H165.171V93.25H165.231V73.25ZM173.704 78.0355C173.249 77.2909 173.195 77.218 172.929 76.7735L155.779 87.0635C156.057 87.5269 156.427 88.1198 156.638 88.4646L173.704 78.0355ZM173.047 76.9754L171.291 73.8886L153.906 83.7747L155.661 86.8616L173.047 76.9754ZM162.598 68.8317H162.084V88.8317H162.598V68.8317ZM153.452 83.8806L156.267 88.6924L173.53 78.5946L170.716 73.7828L153.452 83.8806ZM156.266 78.5953L153.24 83.7702L170.504 93.8666L173.531 88.6917L156.266 78.5953Z" fill="black" mask="url(#path-2-inside-1)"/>
<path d="M37.9358 49.273C37.8839 49.2694 37.8397 49.2658 37.8024 49.2622C37.813 49.1601 37.8278 49.0252 37.8458 48.8659C37.8844 48.5249 37.9377 48.0737 37.9963 47.5948C38.1139 46.6345 38.3368 44.6923 38.4918 43.2782C39.2536 36.3271 42.2689 16.5711 43.0401 13.4654C43.3362 12.2726 44.086 10.4504 44.9795 8.64018C45.8724 6.83135 46.8962 5.05986 47.7302 3.96621C48.2296 3.31118 49.1527 2.57218 50.1907 1.95129C51.2275 1.33113 52.3457 0.848677 53.2191 0.685609C53.8332 0.570961 55.1447 0.480215 56.8739 0.417527C58.5959 0.355104 60.7136 0.320972 62.9276 0.315899C67.358 0.305749 72.1625 0.411978 74.9476 0.639094C75.015 0.644594 75.0802 0.649884 75.1431 0.654996C75.588 0.691115 75.9234 0.718346 76.1802 0.747756C76.4798 0.782068 76.6408 0.816568 76.7317 0.85613C76.7723 0.873776 76.7882 0.888161 76.7949 0.895537C76.8009 0.902128 76.8089 0.913285 76.8171 0.940364C76.8368 1.00572 76.8415 1.09476 76.8507 1.26743C76.8518 1.28799 76.853 1.30973 76.8542 1.33276C76.9012 2.19681 76.7089 4.07615 76.3883 6.18783C76.069 8.29105 75.6273 10.5946 75.1862 12.2942C74.7754 13.8773 74.4232 14.8532 73.9838 15.4867C73.559 16.0994 73.0434 16.4041 72.2488 16.6094C71.9786 16.6792 71.6311 16.7264 70.8588 16.7602C70.0876 16.7939 68.9085 16.8139 66.9824 16.8346C65.3255 16.8524 64.1616 16.8737 63.4019 16.9021C63.0228 16.9163 62.7401 16.9323 62.5457 16.9511C62.4493 16.9604 62.3683 16.9709 62.3057 16.9836C62.2749 16.9899 62.2414 16.9981 62.2099 17.0097L62.2098 17.0097C62.1898 17.0171 62.1233 17.0416 62.073 17.104C62.0491 17.1336 62.0276 17.173 62.0143 17.1975C61.9973 17.2292 61.9771 17.2691 61.9546 17.315C61.9094 17.4071 61.8518 17.5302 61.7858 17.6747C61.6539 17.9642 61.4865 18.3448 61.3152 18.7471C60.0379 21.7486 59.3098 25.4713 57.4612 38.3217C56.8878 42.3075 56.2731 46.4183 56.0951 47.4583C56.0057 47.9808 55.9243 48.467 55.8653 48.8296C55.836 49.0095 55.8121 49.1596 55.7955 49.2686C55.683 49.2744 55.5229 49.28 55.3176 49.2854C54.8707 49.2971 54.2181 49.3076 53.3973 49.3162C51.7562 49.3336 49.4469 49.3438 46.7756 49.3438C43.0072 49.3438 40.699 49.3372 39.3331 49.3161C38.6491 49.3055 38.2062 49.2914 37.9358 49.273Z" fill="white" stroke="black" stroke-width="0.5"/>
<path d="M52.1418 72.2027C52.1559 72.2031 52.1701 72.2035 52.1844 72.204C54.1105 72.2619 57.1627 72.2732 59.8949 72.25C62.6573 72.2265 65.0631 72.1677 65.662 72.0894C66.4939 71.9806 67.0647 71.8352 67.6072 71.5494C68.1539 71.2613 68.6884 70.8219 69.4336 70.096C69.7725 69.7659 69.9437 69.5839 70.0649 69.3938C70.1845 69.2063 70.2627 68.9996 70.3886 68.6021C70.5818 67.9926 70.713 67.1718 70.8683 65.5372C70.9857 64.3017 71.2287 62.0827 71.4085 60.6046C71.6237 58.8349 71.7286 57.4715 71.7254 56.4181C71.7222 55.3615 71.6099 54.6368 71.4049 54.1331L71.6364 54.0389L71.4049 54.1331C71.3779 54.0669 71.3611 54.0319 71.3487 54.0116C71.3424 54.0111 71.3337 54.0108 71.3221 54.0109C71.2788 54.0114 71.2176 54.0175 71.1218 54.0304C71.0397 54.0414 70.8294 54.1063 70.5359 54.2186C70.2528 54.3268 69.9177 54.4691 69.6003 54.6187C68.2164 55.271 67.4393 55.4696 65.663 55.6326C64.0896 55.777 60.6594 55.7818 59.3255 55.6402C58.5649 55.5595 58.0306 55.4686 57.5879 55.3019C57.1367 55.132 56.7948 54.8891 56.4075 54.5305C56.0671 54.2154 55.8133 53.9965 55.5033 53.832C55.1961 53.6689 54.8189 53.5518 54.2291 53.4707C53.0352 53.3066 51.0439 53.2975 47.1585 53.3018C43.9984 53.3052 41.7474 53.3374 40.2306 53.4058C39.4718 53.44 38.9017 53.4831 38.4958 53.5353C38.2926 53.5615 38.1352 53.5893 38.018 53.6181C37.8953 53.6483 37.8369 53.6748 37.8164 53.6883L52.1418 72.2027ZM52.1418 72.2027C49.2222 72.113 47.1405 72.0059 45.6664 71.8594C44.1817 71.7119 43.3471 71.5268 42.8953 71.3C41.3872 70.5427 40.1159 69.0896 39.1607 67.0435C38.2058 64.9984 37.5741 62.3755 37.3383 59.3082C37.2214 57.7875 37.2239 56.4365 37.3261 55.4237C37.3773 54.9165 37.4528 54.5025 37.547 54.1974C37.5941 54.045 37.644 53.9261 37.694 53.8387C37.7451 53.7495 37.7885 53.7065 37.8164 53.6883L52.1418 72.2027Z" fill="#D6D6D6" stroke="black" stroke-width="0.5"/>
<path d="M107.22 30.1834L107.227 30.3627L107.399 30.4139L107.891 30.5606C107.981 30.5877 108.127 30.6118 108.296 30.6341C108.472 30.6572 108.69 30.6802 108.938 30.7023C109.434 30.7463 110.052 30.7867 110.685 30.814C111.87 30.8649 112.67 30.9221 113.217 31.0026C113.772 31.0844 114.024 31.1852 114.154 31.2904C114.182 31.3125 114.196 31.329 114.212 31.3628C114.232 31.4059 114.256 31.4818 114.281 31.6293C114.331 31.9256 114.374 32.4353 114.443 33.3749C114.661 36.3249 114.988 42.1684 115.364 49.8254C115.71 56.8663 115.719 57.0213 115.975 60.9839C116.114 63.138 116.259 64.7023 116.442 65.8708C116.625 67.0382 116.848 67.8269 117.151 68.4211C117.282 68.6778 117.664 69.2654 117.999 69.7305C118.546 70.4905 118.832 70.9637 118.932 71.2838C118.979 71.4369 118.976 71.5308 118.957 71.5941C118.938 71.656 118.894 71.7216 118.796 71.7992C118.571 71.9763 118.278 72.1027 117.1 72.1725C115.927 72.242 113.936 72.2548 110.368 72.2544C106.997 72.254 104.65 72.2262 103.065 72.1603C102.272 72.1274 101.675 72.0851 101.237 72.0327C100.791 71.9793 100.537 71.918 100.413 71.8599C100.357 71.8338 100.253 71.7337 100.128 71.4426C100.009 71.1642 99.8904 70.7587 99.7727 70.2034C99.5379 69.0946 99.3149 67.4331 99.0809 65.0985C98.9164 63.4571 98.748 62.0193 98.5975 60.9429C98.5223 60.405 98.4513 59.9552 98.3872 59.6145C98.3551 59.4443 98.3244 59.2989 98.2952 59.1823C98.2672 59.0707 98.2369 58.9692 98.2021 58.897C98.0946 58.6735 97.8694 58.4605 97.6258 58.2913C97.3759 58.1177 97.0742 57.9676 96.778 57.8851C96.4219 57.7859 95.6846 57.6945 94.9503 57.6352C94.2125 57.5757 93.4375 57.5456 92.999 57.5788C92.0634 57.6496 91.3772 57.8724 90.8171 58.4792C90.2754 59.0661 89.8755 59.9892 89.4278 61.3835C88.5072 64.2504 88.1224 65.8494 88.0589 67.1346C88.0307 67.7059 88.0165 68.0403 88.0556 68.3251C88.096 68.6197 88.1921 68.8544 88.3501 69.2259C88.755 70.1774 88.9284 70.9744 88.8849 71.557C88.8671 71.7953 88.8485 71.8538 88.8269 71.8863C88.8056 71.9182 88.7599 71.9571 88.5482 72.0629C88.3892 72.1424 88.2673 72.1968 87.4135 72.2272C86.5601 72.2576 85.0167 72.2639 82.043 72.2719C80.3448 72.2765 78.7234 72.2702 77.4794 72.2564C76.8573 72.2495 76.3304 72.2407 75.9356 72.2305C75.5331 72.2201 75.2848 72.2084 75.2063 72.1978C75.2034 72.1975 75.2006 72.1971 75.1978 72.1967C74.5029 72.1028 74.116 71.9883 73.8506 71.7869C73.5899 71.589 73.4116 71.28 73.2104 70.6952C72.9766 70.0155 72.8799 69.5857 72.9424 68.9373C73.007 68.2664 73.2422 67.3619 73.7067 65.739C74.8318 61.8076 76.7451 56.2353 77.6193 54.3354L77.919 53.6841L78.3159 53.6324L78.2871 53.4118L78.3159 53.6324C79.6243 53.462 84.7036 53.3298 93.8573 53.2316C99.5931 53.1701 102.819 53.1183 104.663 53.0076C105.582 52.9524 106.175 52.8818 106.568 52.7826C106.968 52.6818 107.197 52.5424 107.348 52.3268C107.404 52.248 107.439 52.1511 107.464 52.0551C107.49 51.9557 107.509 51.84 107.523 51.7118C107.551 51.4552 107.559 51.1299 107.55 50.7488C107.532 49.9855 107.443 48.9761 107.287 47.801C106.792 44.0591 105.031 32.3399 104.756 30.9546C104.587 30.1076 104.395 29.4342 104.164 28.9213C103.934 28.4098 103.657 28.0358 103.306 27.8178C103.203 27.7537 103.101 27.6937 102.957 27.6478C102.817 27.6034 102.649 27.5756 102.412 27.5552C101.939 27.5147 101.131 27.4991 99.5952 27.4726C98.162 27.448 97.3686 27.4293 96.898 27.3944C96.4277 27.3595 96.3249 27.3103 96.2405 27.2549L96.0491 27.1294L96.1069 25.9451C96.1735 24.5822 96.5438 22.7578 97.0993 21.076C97.4345 20.0615 97.685 19.6619 97.9824 19.467C98.0676 19.4112 98.2189 19.3449 98.4382 19.2744C98.653 19.2053 98.9174 19.1369 99.2177 19.0715C99.8179 18.9408 100.549 18.8246 101.288 18.738C102.027 18.6513 102.768 18.5948 103.39 18.5822C104.026 18.5694 104.498 18.604 104.722 18.6792C105.079 18.7988 105.353 18.9581 105.579 19.2121C105.809 19.4699 106.005 19.8423 106.177 20.4132C106.523 21.5641 106.747 23.4395 107 26.5943C107.091 27.7376 107.178 29.0099 107.193 29.4223L107.22 30.1834Z" fill="#D6D6D6" stroke="black" stroke-width="0.5"/>
<path d="M108.857 15.1646L108.796 15.0023L108.622 15.0031L102.147 15.0313L95.672 15.0595L95.4858 15.0603L95.4333 15.239L94.0518 19.9414C92.7328 24.4311 91.6222 28.4683 91.4713 29.3332C91.4422 29.4996 91.4264 29.657 91.4681 29.8068C91.5122 29.9653 91.6096 30.0786 91.7204 30.1819L91.8908 29.999L91.7204 30.1819C92.0063 30.4483 92.3703 30.5767 93.1699 30.6566C93.9697 30.7365 95.2622 30.7715 97.4563 30.8052L101.455 30.8665L101.663 32.1185C101.952 33.8543 102.516 37.8899 103 41.5604C103.243 43.3949 103.465 45.1364 103.624 46.4516C103.703 47.1094 103.767 47.6596 103.808 48.0611C103.829 48.262 103.845 48.4243 103.854 48.5436C103.859 48.6034 103.862 48.6508 103.863 48.686C103.864 48.7152 103.864 48.7295 103.864 48.7339C103.864 48.7353 103.864 48.7357 103.864 48.7352C103.856 48.8149 103.848 48.8509 103.844 48.8651C103.836 48.869 103.819 48.8759 103.789 48.8844C103.736 48.8993 103.662 48.9139 103.552 48.9326C103.153 49.0001 102.075 49.0652 100.564 49.1209C99.0618 49.1763 97.1524 49.2219 95.108 49.2536C91.0186 49.3169 86.3952 49.324 83.4178 49.2416C81.9214 49.2001 80.9139 49.1474 80.2438 49.0674C79.9086 49.0274 79.6671 48.9816 79.4952 48.9304C79.3201 48.8781 79.2404 48.8268 79.2053 48.7917C79.2002 48.7866 79.1508 48.7302 79.1667 48.4616C79.182 48.2052 79.2524 47.8168 79.4002 47.2286C79.6947 46.0557 80.2814 44.1462 81.2794 41.0305C82.0021 38.7743 83.8733 32.8685 85.4375 27.9063C87.0017 22.9442 89.0007 16.6456 89.8797 13.9096C90.8894 10.7664 91.4364 9.03818 91.7217 7.96019C92.0099 6.87139 92.0369 6.42428 92.0007 5.84701C91.9764 5.45996 91.9451 5.19316 91.829 4.85044C91.7169 4.51931 91.5267 4.12073 91.2002 3.4633C90.7796 2.61642 90.5553 2.11764 90.4643 1.78399C90.4199 1.6213 90.4122 1.51445 90.4214 1.43605C90.43 1.36189 90.4556 1.29712 90.506 1.22017C90.5919 1.08908 90.7362 0.969249 91.0264 0.855573C91.3211 0.740134 91.7449 0.639248 92.365 0.535709C93.2189 0.393125 94.5574 0.365143 101.291 0.362289C105.549 0.360485 107.915 0.372117 109.351 0.444704C110.781 0.516998 111.258 0.648761 111.751 0.873776C112.103 1.03478 112.357 1.21484 112.575 1.62956C112.804 2.06568 112.998 2.76865 113.176 3.99344C113.532 6.43778 113.812 10.8415 114.279 19.041C114.413 21.3868 114.494 23.9126 114.474 25.0567C114.457 25.9725 114.443 26.4616 114.409 26.7581C114.392 26.9035 114.372 26.989 114.349 27.0491C114.328 27.1055 114.302 27.1494 114.257 27.209L114.101 27.4189L112.262 27.4468L110.527 27.4731L110.142 24.0599C109.921 22.0929 109.664 20.0433 109.443 18.4352C109.333 17.6313 109.232 16.9366 109.149 16.4173C109.107 16.1578 109.07 15.9405 109.038 15.7747C109.008 15.6175 108.978 15.4851 108.951 15.4115L108.857 15.1646ZM98.3317 44.0249C98.6585 43.94 98.931 43.78 99.1417 43.5349C99.3501 43.2924 99.4856 42.9811 99.565 42.6118C99.65 42.2169 99.7043 41.5568 99.7344 40.7805C99.7647 39.9985 99.771 39.0816 99.7557 38.1634C99.7252 36.338 99.6088 34.4711 99.4163 33.6559C99.3291 33.2869 99.2132 32.9672 99.0798 32.7334C99.0134 32.6169 98.937 32.5117 98.8493 32.4325C98.7629 32.3545 98.6444 32.2835 98.5001 32.2835C98.2904 32.2835 98.1143 32.3877 97.9702 32.5437C97.8296 32.696 97.704 32.9132 97.5844 33.1858C97.3445 33.7324 97.0991 34.5718 96.8171 35.7564C96.3949 37.5298 96.233 38.0751 95.5738 39.9414C95.2025 40.9927 95.095 41.4501 95.0887 42.1C95.0803 42.9623 95.3346 43.6212 95.9338 43.9649C96.5099 44.2952 97.329 44.2856 98.3317 44.0249Z" fill="white" stroke="black" stroke-width="0.5"/>
<path d="M136.659 27.6921L136.659 27.6921C136.616 27.6226 136.552 27.595 136.54 27.5894L136.539 27.589C136.516 27.579 136.495 27.5732 136.481 27.5697C136.453 27.5625 136.421 27.5575 136.391 27.5535C136.329 27.5454 136.246 27.5384 136.146 27.5321C135.944 27.5194 135.656 27.5087 135.297 27.5001C134.577 27.4828 133.56 27.4738 132.349 27.4753C130.094 27.4782 128.957 27.4738 128.337 27.3895C128.03 27.3478 127.886 27.2903 127.802 27.2304C127.72 27.1726 127.668 27.095 127.581 26.9306C127.462 26.7067 127.419 26.4497 127.429 25.4832C127.443 24.1297 127.533 23.3516 128.434 16.9291C129.373 10.2306 129.569 8.45918 129.582 6.50848L129.593 4.81341L129.593 4.75822L129.57 4.70802L129.171 3.83314L128.944 3.93693L129.171 3.83314C128.692 2.78445 128.554 2.13952 128.554 0.95147L128.554 0.253473L130.023 0.273741C130.971 0.286818 136.791 0.349853 142.956 0.413814C154.427 0.53283 159.305 0.654998 161.024 0.862589C162.391 1.02762 163.175 1.30467 163.93 1.8602C165.975 3.36551 167.185 5.48025 167.745 8.59558C168.174 10.9811 168.245 12.2583 168.229 17.4967C168.215 22.2083 168.197 22.6164 167.958 24.1295L167.733 25.5623L163.951 25.6252C161.878 25.6596 160.654 25.6944 159.852 25.7748C159.04 25.8562 158.64 25.9866 158.223 26.2193C157.863 26.4203 157.608 26.6715 157.437 27.0662C157.274 27.4441 157.195 27.941 157.146 28.6194C157.1 29.2516 157.052 29.6019 156.978 29.8057C156.943 29.9008 156.908 29.9465 156.88 29.9724C156.851 29.9979 156.811 30.0203 156.736 30.039C156.469 30.1062 156.28 30.2928 156.146 30.561C156.016 30.8206 155.927 31.1771 155.856 31.6332C155.654 32.9397 154.879 34.0831 152.13 36.9263L150.379 38.7365H142.785C140.667 38.7365 138.743 38.7329 137.347 38.727C136.65 38.7241 136.085 38.7206 135.694 38.7167C135.575 38.7155 135.473 38.7143 135.388 38.7131C135.39 38.7021 135.393 38.6908 135.395 38.6793C135.436 38.4867 135.492 38.2251 135.554 37.9412C135.68 37.3645 135.876 36.2283 135.99 35.4124C136.129 34.4218 136.326 32.5609 136.477 30.9343C136.553 30.1204 136.618 29.3629 136.658 28.8C136.679 28.519 136.693 28.2844 136.7 28.1149C136.704 28.0307 136.705 27.9592 136.704 27.9049C136.704 27.8782 136.703 27.8511 136.701 27.8267C136.7 27.8147 136.698 27.7988 136.694 27.7818L136.694 27.7815C136.692 27.7706 136.684 27.7322 136.659 27.6921ZM147.913 29.4918C148.267 29.4159 148.562 29.2829 148.783 29.0686C149.007 28.8517 149.134 28.5717 149.185 28.2412C149.22 28.0183 149.327 27.8173 149.532 27.6264C149.775 27.3994 150 27.0261 150.086 26.7062C150.376 25.6309 150.619 23.7673 150.753 22.0184C150.821 21.1413 150.861 20.2871 150.864 19.5677C150.868 18.8562 150.837 18.2536 150.754 17.8935C150.544 16.9884 149.659 16.3179 148.709 16.3179C148.497 16.3179 148.319 16.3352 148.144 16.4032C147.971 16.4707 147.823 16.5799 147.657 16.7256C146.758 17.515 146.418 18.676 146.091 21.5446C145.969 22.6096 145.75 24.3913 145.603 25.5026C145.453 26.6334 145.368 27.431 145.347 27.9831C145.337 28.2589 145.342 28.4823 145.365 28.6598C145.387 28.8327 145.431 28.9896 145.518 29.109C145.716 29.3801 146.102 29.5147 146.499 29.5678C146.914 29.6231 147.411 29.5996 147.913 29.4918Z" fill="white" stroke="black" stroke-width="0.5"/>
<path d="M132.677 72.2622C128.674 72.2741 124.753 72.2447 123.96 72.1978C123.896 72.1941 123.835 72.1904 123.775 72.1869C123.308 72.1594 122.955 72.1387 122.685 72.1145C122.375 72.0867 122.198 72.0561 122.091 72.017C122.003 71.9849 121.98 71.9547 121.96 71.9147C121.928 71.8517 121.909 71.7659 121.871 71.5972C121.868 71.5804 121.864 71.5628 121.86 71.5444C121.812 71.333 121.774 70.9135 121.751 70.3516C121.728 69.7968 121.72 69.1219 121.725 68.4119C121.736 66.9898 121.803 65.4398 121.919 64.4414C122.168 62.2998 122.758 58.2064 123.366 54.3908C124.213 49.0772 124.703 45.8509 125.438 40.7492C125.828 38.0375 126.183 35.7152 126.46 34.0331C126.599 33.1918 126.718 32.5121 126.813 32.0246C126.86 31.7805 126.901 31.5868 126.934 31.4459C126.951 31.3753 126.966 31.3203 126.978 31.28C126.987 31.2485 126.993 31.2331 126.995 31.2282C126.995 31.2268 126.996 31.2263 126.995 31.2265C127.001 31.216 127.028 31.1788 127.141 31.1335C127.259 31.0867 127.44 31.0428 127.716 31.0047C128.267 30.9287 129.132 30.8831 130.47 30.8497L132.756 30.7928L132.754 31.1791C132.753 31.5278 132.68 33.8047 132.592 36.2435C132.505 38.6768 132.431 40.9902 132.43 41.3802L132.428 42.0795L132.427 42.3335L132.681 42.3302L138.505 42.2546C141.901 42.2104 144.355 42.1572 146.108 42.0846C147.857 42.0123 148.925 41.9205 149.539 41.7951C150.711 41.5558 151.712 41.0469 153.377 39.8758C155.741 38.212 157.203 36.6341 158.225 34.6158C158.396 34.2788 158.99 32.9935 159.545 31.7621L160.489 29.6661L163.565 29.6386C164.842 29.6272 165.645 29.6273 166.129 29.6437C166.309 29.6498 166.439 29.658 166.53 29.6676C166.518 29.7503 166.5 29.86 166.477 29.9941C166.431 30.2593 166.367 30.5951 166.297 30.9472C166.155 31.6538 165.988 32.4143 165.883 32.7961C165.362 34.6906 164.244 37.0772 162.97 39.0067C162.209 40.1591 161.408 41.0403 159.975 42.2907C159.333 42.8509 158.931 43.2781 158.773 43.8958C158.621 44.4927 158.706 45.2368 158.901 46.3976C159.261 48.5303 159.796 50.4351 160.441 51.9449C161.082 53.4454 161.845 54.59 162.679 55.1594C162.912 55.3187 163.527 55.6689 164.046 55.94C164.477 56.1655 164.688 56.2862 164.812 56.3918C164.913 56.4782 164.954 56.5519 165.013 56.7275C165.093 56.9643 165.126 57.3315 165.07 58.0792C165.014 58.8212 164.875 59.9066 164.633 61.561C164.119 65.0818 163.676 67.5184 163.233 69.144C163.012 69.9571 162.793 70.5565 162.572 70.9836C162.349 71.413 162.135 71.6442 161.935 71.7547C161.534 71.9761 161.203 72.1011 160.342 72.1713C159.465 72.2428 158.065 72.2551 155.535 72.2551C153.394 72.2551 152.193 72.25 151.447 72.2227C150.705 72.1956 150.431 72.147 150.141 72.0648C149.229 71.8061 148.818 71.5776 148.315 71.0758C147.767 70.5291 147.315 69.7321 146.873 68.3488C146.431 66.9641 146.007 65.0146 145.502 62.1815C144.284 55.3384 144.039 54.0594 143.628 52.3856C143.506 51.8889 143.377 51.4019 143.267 51.017C143.212 50.8247 143.161 50.6565 143.118 50.5246C143.078 50.4 143.039 50.289 143.006 50.2253C142.905 50.0295 142.75 49.8434 142.534 49.7994C142.277 49.747 142.088 49.9158 141.988 50.1075C141.892 50.2928 141.791 50.6433 141.689 51.0876C141.583 51.5429 141.469 52.1272 141.35 52.8024C141.112 54.1534 140.854 55.8782 140.615 57.6844C140.138 61.292 139.734 65.2454 139.715 67.1988C139.706 68.1701 139.721 68.7969 139.804 69.246C139.891 69.7166 140.053 70.0002 140.321 70.2838C140.565 70.5428 140.74 70.8994 140.813 71.2281C140.849 71.3917 140.857 71.5386 140.842 71.6556C140.827 71.7744 140.79 71.8434 140.754 71.8789C140.674 71.9591 140.609 72.0119 140.448 72.0583C140.268 72.1103 139.974 72.1515 139.437 72.1812C138.367 72.2403 136.416 72.2511 132.677 72.2622Z" fill="#D6D6D6" stroke="black" stroke-width="0.5"/>
<path d="M184.892 72.2474C183.751 72.272 182.384 72.2543 181.857 72.2097C181.849 72.209 181.841 72.2083 181.833 72.2076C181.297 72.1616 180.712 72.0883 180.523 72.0461C180.085 71.9485 179.616 71.7108 179.215 71.4009C178.813 71.0894 178.504 70.7231 178.363 70.3859C178.151 69.8759 177.988 69.1549 177.802 67.4608C177.617 65.7709 177.412 63.1371 177.107 58.8176C176.576 51.3075 176.348 48.3141 175.85 42.3559C175.257 35.252 175.14 33.5102 175.126 31.6323C175.119 30.8304 175.121 30.4026 175.145 30.1577C175.157 30.0357 175.173 29.9824 175.184 29.9585C175.189 29.9464 175.192 29.9421 175.21 29.9283L175.21 29.9283C175.478 29.7331 175.998 29.6142 176.947 29.6135C177.3 29.6133 177.534 29.6259 177.706 29.6767C177.858 29.7218 177.96 29.7965 178.048 29.946C178.145 30.1116 178.227 30.3722 178.303 30.7958C178.378 31.2153 178.444 31.7679 178.525 32.502C178.758 34.6173 178.9 36.9412 179.008 40.416C179.059 42.0611 179.106 43.0391 179.206 43.7003C179.308 44.3798 179.469 44.7403 179.743 45.148C179.947 45.4498 180.299 45.7058 180.712 45.9035C181.13 46.1034 181.634 46.2543 182.167 46.3328C182.989 46.4534 185.551 46.6729 186.151 46.6729H186.21L186.385 49.2016C186.491 50.7187 186.622 52.3372 186.678 52.7959C186.851 54.222 187.13 55.2346 187.642 55.9029C188.169 56.5921 188.914 56.8785 189.911 56.9304C190.44 56.958 190.852 56.9431 191.242 56.852C191.634 56.7605 191.988 56.596 192.407 56.3458C193.297 55.8135 194.014 54.812 194.543 53.44C194.885 52.5536 195.141 52.1208 195.535 51.8793C195.941 51.631 196.537 51.5555 197.663 51.548C197.75 51.5474 197.833 51.5466 197.91 51.5459C198.245 51.5427 198.487 51.5404 198.667 51.5589C198.893 51.582 198.916 51.629 198.921 51.6394L198.922 51.6399C198.93 51.6564 198.943 51.6962 198.942 51.7837C198.94 51.8706 198.925 51.9862 198.894 52.1419C198.843 52.3967 198.757 52.7265 198.642 53.1637C198.615 53.2638 198.587 53.3695 198.558 53.4812C197.857 56.1631 197.116 58.7368 194.974 65.9382L193.151 72.0631L190.151 72.1309C188.402 72.1704 186.035 72.2228 184.892 72.2474Z" fill="#D6D6D6" stroke="black" stroke-width="0.5"/>
<path d="M189.795 43.3598L189.795 43.1103H189.545H186.155C185.224 43.1103 184.377 43.1056 183.764 43.0979C183.457 43.0941 183.21 43.0896 183.04 43.0846C183.024 43.0842 183.009 43.0837 182.995 43.0833L182.989 43.0123C182.972 42.8357 182.948 42.5831 182.919 42.2734C182.861 41.6538 182.78 40.8052 182.691 39.8769C182.513 38.0215 182.265 35.2243 182.139 33.662C181.938 31.1609 181.771 29.3919 181.619 28.2183C181.543 27.6324 181.471 27.1885 181.398 26.8739C181.362 26.717 181.324 26.5854 181.284 26.4817C181.247 26.388 181.195 26.2789 181.108 26.2073C180.977 26.098 180.802 26.0184 180.588 25.956C180.373 25.8932 180.102 25.8437 179.766 25.8033C179.093 25.7227 178.125 25.6754 176.745 25.6452L174.181 25.5891L174.123 23.8986C174.052 21.8693 173.787 18.3077 173.33 13.264C173.04 10.0583 172.802 7.9588 172.529 6.50922C172.254 5.05802 171.94 4.23267 171.481 3.59132C171.039 2.97485 170.72 2.32763 170.561 1.78972C170.481 1.52021 170.444 1.28788 170.447 1.10596C170.449 0.919092 170.493 0.81875 170.535 0.772141C170.608 0.691605 170.686 0.62859 170.87 0.573928C171.07 0.514687 171.385 0.468217 171.928 0.435243C173.011 0.369509 174.922 0.360715 178.445 0.362931C182.592 0.365538 185.393 0.411104 187.209 0.520546C188.118 0.575325 188.772 0.645649 189.221 0.732389C189.446 0.775785 189.611 0.821845 189.729 0.868554C189.851 0.916872 189.899 0.957266 189.914 0.975376C189.914 0.974791 189.919 0.981749 189.931 1.00126C189.941 1.01949 189.954 1.04379 189.968 1.07443C189.998 1.13575 190.031 1.21532 190.067 1.30853C190.138 1.49472 190.213 1.72536 190.275 1.9536C190.972 4.53755 191.253 8.88041 191.49 21.0559C191.521 22.6955 191.559 24.2418 191.594 25.4123C191.611 25.9974 191.628 26.4893 191.643 26.8521C191.657 27.2053 191.671 27.4559 191.684 27.541C191.715 27.7442 191.757 27.9262 191.827 28.0492C191.862 28.1101 191.927 28.1982 192.04 28.2355C192.168 28.2779 192.28 28.2312 192.351 28.1798C192.417 28.1315 192.47 28.0646 192.511 28.0007C192.555 27.9337 192.598 27.853 192.641 27.7618C192.726 27.5792 192.818 27.336 192.918 27.0356C193.889 24.1305 196.757 12.7491 197.673 8.16889C197.842 7.3244 197.933 6.87176 197.957 6.5133C197.982 6.14146 197.937 5.87001 197.858 5.39889C197.766 4.85453 197.526 4.01209 197.322 3.51332C197.05 2.85169 196.978 2.52427 196.97 1.95949C196.964 1.53455 197.004 1.26832 197.089 1.0823C197.168 0.908808 197.298 0.781193 197.532 0.660133C197.635 0.606973 197.851 0.548197 198.223 0.497039C198.585 0.447129 199.068 0.407596 199.684 0.378767C200.915 0.321135 202.657 0.307023 204.984 0.333665C206.783 0.354281 207.913 0.375057 208.662 0.408674C209.413 0.442389 209.765 0.488579 210.019 0.554355C210.655 0.719463 211.067 0.886941 211.37 1.11189C211.667 1.33248 211.88 1.62311 212.087 2.07371C212.192 2.30266 212.244 2.45096 212.273 2.68894C212.303 2.94177 212.307 3.29449 212.3 3.93364C212.27 6.717 211.521 9.78772 207.118 25.0279C205.323 31.2403 203.9 36.0976 202.868 39.5413C201.832 42.9942 201.194 45.0085 200.965 45.5524C200.821 45.8952 200.664 46.369 200.618 46.6153C200.584 46.7948 200.56 46.8769 200.52 46.9352C200.488 46.9828 200.426 47.0403 200.249 47.1036C200.068 47.1684 199.796 47.2291 199.374 47.2993C198.955 47.369 198.402 47.4457 197.668 47.5458C196.633 47.687 195.83 47.8027 195.199 47.9204C194.57 48.0378 194.099 48.1597 193.733 48.3182C193.361 48.4797 193.096 48.68 192.885 48.9501C192.678 49.2128 192.531 49.5313 192.375 49.9078C192.044 50.7112 191.796 51.1663 191.537 51.4256C191.301 51.6628 191.041 51.7489 190.614 51.7493C190.396 51.7494 190.304 51.7361 190.252 51.7156C190.22 51.703 190.189 51.6834 190.127 51.5883C190.126 51.5875 190.126 51.5867 190.125 51.5859C190.093 51.5356 190.046 51.4069 190.002 51.1508C189.959 50.9014 189.922 50.5617 189.892 50.1194C189.833 49.2357 189.804 47.9642 189.801 46.2305L189.795 43.3598ZM183.015 43.3182C183.015 43.3123 183.015 43.3052 183.014 43.2985C183.015 43.3049 183.015 43.3114 183.015 43.3182Z" fill="white" stroke="black" stroke-width="0.5"/>
<path d="M229.189 52.5775L229.193 52.5597L229.248 52.3346C229.248 52.3346 229.248 52.3345 229.248 52.3345C229.246 52.3339 229.246 52.334 229.249 52.3344C229.255 52.3352 229.27 52.337 229.297 52.3394C229.336 52.3426 229.388 52.3461 229.453 52.3495C229.583 52.3564 229.759 52.363 229.969 52.3689C230.388 52.3808 230.937 52.39 231.514 52.3934L233.368 52.4046V41.5118V30.3674V30.1455L233.588 30.1192L234.108 30.057C234.405 30.0214 235.832 29.9412 237.271 29.8781C238.72 29.8145 240.102 29.736 240.352 29.7045L240.601 29.6731L240.542 28.1885C240.504 27.2453 240.424 25.0958 240.363 23.4115C240.153 17.5684 239.645 8.48728 239.377 5.7656C239.219 4.1679 238.989 3.09608 238.62 2.35445C238.259 1.63058 237.761 1.21242 237.025 0.932699C236.672 0.798731 236.398 0.701862 236.039 0.627304C235.678 0.552253 235.222 0.498389 234.511 0.459178C233.084 0.380578 230.667 0.362497 225.989 0.33605L217.464 0.287861V3.59398C217.464 6.57559 217.454 8.13913 216.928 10.5047C216.404 12.8562 215.37 16.0046 213.336 22.1686C212.022 26.15 211.057 29.1183 210.405 31.189C209.749 33.2708 209.416 34.424 209.356 34.7944C209.294 35.171 208.975 36.1768 208.653 37.0296C207.985 38.8012 207.155 41.2721 206.511 43.3317C206.19 44.3614 205.915 45.2857 205.731 45.9668C205.639 46.3079 205.57 46.5844 205.529 46.7812C205.512 46.866 205.5 46.932 205.494 46.9798C205.507 46.9865 205.524 46.9943 205.545 47.0029C205.63 47.0366 205.763 47.072 205.964 47.1059C206.366 47.1735 206.994 47.2283 207.952 47.2729C209.865 47.3619 213.054 47.4088 218.282 47.4485C220.876 47.4683 223.235 47.4934 224.945 47.5181C225.801 47.5305 226.494 47.5427 226.974 47.554C227.214 47.5597 227.402 47.5652 227.53 47.5704C227.594 47.573 227.646 47.5757 227.682 47.5784C227.7 47.5797 227.719 47.5813 227.735 47.5837C227.742 47.5846 227.758 47.587 227.776 47.5919C227.783 47.5938 227.805 47.6 227.831 47.6139C227.843 47.6207 227.869 47.636 227.895 47.6638C227.922 47.6925 227.963 47.7504 227.963 47.8342C227.963 47.8312 227.963 47.8443 227.968 47.8857C227.973 47.9221 227.98 47.9706 227.989 48.0305C228.007 48.1499 228.033 48.3094 228.064 48.4962C228.128 48.8696 228.213 49.3485 228.301 49.8273C228.389 50.3061 228.48 50.7837 228.554 51.1548C228.59 51.3404 228.623 51.4984 228.648 51.616C228.661 51.675 228.672 51.7226 228.681 51.7579C228.685 51.7739 228.688 51.7854 228.69 51.7932C228.693 51.8046 228.694 51.8084 228.694 51.8071C228.791 52.0613 229.037 52.2814 229.245 52.3338L229.189 52.5775ZM228.939 52.4692C228.732 52.3405 228.548 52.1273 228.46 51.8961C228.377 51.6801 227.713 48.0697 227.713 47.8346C227.713 47.7992 223.468 47.738 218.28 47.6985C207.826 47.619 205.506 47.5111 205.247 47.092C205.094 46.8445 207.078 40.4967 208.419 36.9413C208.742 36.0872 209.052 35.103 209.109 34.7541C209.237 33.9685 210.471 30.0536 213.099 22.0902C217.171 9.74932 217.214 9.55712 217.214 3.59398V0.286448L228.939 52.4692ZM205.489 47.0423C205.489 47.0418 205.489 47.0411 205.489 47.0401C205.489 47.0462 205.489 47.0475 205.489 47.0423ZM223.62 43.5962L223.452 43.4109L223.62 43.5962C223.89 43.3518 224.025 43.0459 224.097 42.4536C224.168 41.872 224.184 40.9659 224.182 39.478C224.181 37.9638 224.157 37.0045 224.084 36.4226C224.048 36.1357 223.997 35.9103 223.913 35.7513C223.869 35.6683 223.81 35.5915 223.729 35.5361C223.644 35.4787 223.551 35.4555 223.46 35.4555C223.242 35.4555 223.063 35.576 222.928 35.7268C222.791 35.8786 222.675 36.0863 222.576 36.3266C222.379 36.8093 222.232 37.4761 222.162 38.2446C222.12 38.7049 222.064 39.026 221.999 39.2263C221.97 39.3183 221.943 39.3695 221.925 39.3948C221.776 39.4122 221.677 39.5219 221.627 39.589C221.562 39.6758 221.506 39.7877 221.458 39.9063C221.361 40.1464 221.275 40.4655 221.208 40.8028C221.14 41.1419 221.091 41.5091 221.07 41.8488C221.05 42.1841 221.058 42.5103 221.113 42.7589C221.238 43.3153 221.53 43.7574 222.011 43.8627C222.271 43.9196 222.596 43.9135 222.88 43.8711C223.024 43.8496 223.165 43.8176 223.288 43.7755C223.405 43.7353 223.529 43.6786 223.62 43.5962Z" fill="white" stroke="black" stroke-width="0.5"/>
<path d="M202.819 55.6588L204.205 51.3755H214.483H224.74L224.951 52.3931C225.246 53.8169 225.605 54.7629 226.352 55.3239C227.094 55.8801 228.162 56.0147 229.739 55.9986C230.417 55.9917 232.153 55.8659 233.724 55.7289C234.511 55.6602 235.262 55.5883 235.823 55.5264C236.103 55.4956 236.339 55.4669 236.509 55.4422C236.593 55.4299 236.665 55.4181 236.72 55.4069C236.746 55.4014 236.774 55.395 236.798 55.3876C236.811 55.3839 236.827 55.3785 236.844 55.371L236.844 55.371C236.855 55.3661 236.893 55.3492 236.929 55.3135C236.953 55.2857 236.98 55.2392 236.987 55.223C236.987 55.2216 236.988 55.22 236.988 55.2183C236.991 55.2091 236.995 55.1972 236.996 55.1919C236.999 55.1803 237 55.1706 237.001 55.1665C237.002 55.157 237.003 55.1479 237.003 55.1417C237.004 55.1283 237.005 55.1115 237.006 55.0928C237.008 55.0547 237.01 55.0003 237.012 54.9314C237.017 54.7931 237.023 54.5919 237.029 54.3366C237.042 53.8258 237.057 53.0958 237.075 52.2138C237.111 50.4498 237.155 48.0762 237.198 45.6278C237.284 40.7325 237.365 35.5336 237.366 34.3119L237.368 33.3315L238.621 33.3327C239.032 33.3332 239.431 33.3405 239.742 33.3518C239.898 33.3575 240.03 33.3642 240.13 33.3713C240.18 33.3749 240.22 33.3785 240.25 33.382C240.275 33.3848 240.287 33.3869 240.29 33.3875C240.292 33.3878 240.292 33.3878 240.291 33.3876C240.296 33.389 240.301 33.3902 240.306 33.3913C240.312 33.4233 240.318 33.462 240.324 33.5085C240.345 33.6669 240.368 33.903 240.396 34.2533C240.488 35.386 240.628 37.6669 240.909 42.2352C240.975 43.32 241.05 44.5337 241.134 45.8917C242.022 60.289 242.276 63.7896 242.615 66.2512C242.761 67.3121 242.876 67.9827 243.051 68.488C243.232 69.0089 243.474 69.3479 243.846 69.7551C244.373 70.3315 244.628 70.9234 244.63 71.4923C244.631 71.7532 244.606 71.8423 244.537 71.9085C244.447 71.9942 244.23 72.0898 243.679 72.1587C242.596 72.2937 240.485 72.3038 236.352 72.3048C232.428 72.3059 230.012 72.2755 228.498 72.1746C227.741 72.1241 227.22 72.0567 226.854 71.9701C226.487 71.8836 226.295 71.7826 226.177 71.6784C226.098 71.6092 225.995 71.445 225.884 71.1211C225.776 70.8061 225.673 70.3726 225.572 69.8031C225.372 68.6647 225.189 67.0134 225.009 64.7443C224.755 61.5598 224.63 60.5917 224.327 59.6104C224.062 58.7517 223.503 58.0912 222.779 57.8899C222.438 57.7953 221.927 57.7586 221.364 57.7588C220.794 57.7589 220.148 57.7972 219.523 57.8627C218.899 57.9282 218.291 58.0215 217.799 58.1332C217.553 58.189 217.332 58.2504 217.149 58.3169C216.975 58.3808 216.809 58.4586 216.698 58.5588C216.639 58.6129 216.586 58.6918 216.541 58.7672C216.492 58.8487 216.439 58.9506 216.383 59.0687C216.269 59.3053 216.135 59.6206 215.986 59.998C215.688 60.7536 215.325 61.7706 214.944 62.9326C214.087 65.5428 213.777 66.7476 213.772 67.5943C213.77 67.9204 213.779 68.1502 213.86 68.4049C213.938 68.65 214.08 68.9068 214.308 69.3003C214.788 70.1265 215.072 70.7667 215.178 71.2294C215.286 71.7051 215.189 71.8899 215.072 71.9663C215.063 71.9722 215.03 71.9892 214.963 72.0129C214.9 72.0351 214.821 72.0588 214.729 72.0822C214.545 72.1291 214.324 72.1723 214.111 72.2C213.886 72.2292 213.085 72.2525 211.953 72.2677C210.831 72.2827 209.405 72.2895 207.949 72.2884C205.044 72.2862 202.032 72.2524 201.059 72.1894C201.054 72.1891 201.05 72.1888 201.045 72.1885L201.045 72.1885C200.673 72.1639 200.31 72.1301 200.026 72.0956C199.883 72.0783 199.763 72.0611 199.672 72.0452C199.583 72.0298 199.543 72.0188 199.535 72.0165C199.533 72.0161 199.533 72.016 199.533 72.0161C199.515 72.0079 199.452 71.9587 199.384 71.7803C199.321 71.6134 199.27 71.3772 199.238 71.0791C199.176 70.4849 199.195 69.6866 199.312 68.8005C199.721 65.7201 200.453 62.9704 202.819 55.6588Z" fill="#D6D6D6" stroke="black" stroke-width="0.5"/>
<path d="M171.61 84.2611C171.307 83.9575 171.294 82.7429 171.592 82.4736C171.777 82.3064 173.629 82.2926 196.026 82.2926C217.347 82.2926 220.28 82.3122 220.423 82.4556C220.812 82.8446 220.766 84.0255 220.351 84.3164C220.146 84.4602 217.219 84.4798 195.973 84.4798C171.975 84.4798 171.828 84.4786 171.61 84.2611H171.61Z" fill="#3A3A3A"/>
<path d="M61.4845 84.2611C61.1809 83.9575 61.1682 82.7429 61.4657 82.4736C61.6506 82.3064 63.5032 82.2926 85.9 82.2926C107.522 82.2926 110.152 82.3107 110.302 82.4602C110.519 82.6777 110.631 83.2859 110.54 83.7658C110.395 84.5435 112.596 84.4798 85.8475 84.4798C61.849 84.4798 61.7019 84.4786 61.4845 84.2611Z" fill="#3A3A3A"/>
</svg>
