<svg width="200" height="86" viewBox="0 0 200 86" fill="none" xmlns="http://www.w3.org/2000/svg">
<mask id="mask0" mask-type="alpha" maskUnits="userSpaceOnUse" x="0" y="0" width="200" height="86">
<path d="M74.1139 85.2509H76.6179C78.8598 85.2509 80.1409 84.2923 80.1409 82.4623C80.1409 81.1261 79.2529 80.3419 77.8262 80.1385V80.0804C78.9617 79.79 79.5295 79.0057 79.5295 77.989C79.5295 76.4205 78.4231 75.6653 76.4432 75.6653H74.1139V85.2509ZM74.5797 79.9352V76.0719H76.2394C78.161 76.0719 79.0636 76.6238 79.0636 77.989C79.0636 79.2671 78.2484 79.9352 76.152 79.9352H74.5797ZM74.5797 84.8442V80.3419H76.4432C78.5104 80.3419 79.6751 81.039 79.6751 82.4914C79.6751 84.118 78.5104 84.8442 76.4432 84.8442H74.5797ZM85.8129 85.2509H86.2788V80.7195H88.4334L91.1412 85.2509H91.6944L88.9575 80.6904C90.5589 80.5452 91.5488 79.6593 91.5488 78.1343C91.5488 76.3624 90.3551 75.6653 88.4625 75.6653H85.8129V85.2509ZM86.2788 80.3128V76.0719H88.2878C90.0639 76.0719 91.0539 76.6238 91.0539 78.1343C91.0539 79.6157 90.0639 80.3128 88.2878 80.3128H86.2788ZM100.016 85.4252C102.083 85.4252 103.568 83.4499 103.568 80.429C103.568 77.4081 102.083 75.491 100.016 75.491C97.9487 75.491 96.4638 77.4081 96.4638 80.429C96.4638 83.4499 97.9487 85.4252 100.016 85.4252ZM100.016 84.9894C98.1962 84.9894 96.9588 83.1885 96.9588 80.429C96.9588 77.6695 98.1962 75.9267 100.016 75.9267C101.836 75.9267 103.073 77.6695 103.073 80.429C103.073 83.1885 101.836 84.9894 100.016 84.9894ZM111.657 85.4252C113.724 85.4252 115.209 83.4499 115.209 80.429C115.209 77.4081 113.724 75.491 111.657 75.491C109.59 75.491 108.105 77.4081 108.105 80.429C108.105 83.4499 109.59 85.4252 111.657 85.4252ZM111.657 84.9894C109.837 84.9894 108.6 83.1885 108.6 80.429C108.6 77.6695 109.837 75.9267 111.657 75.9267C113.477 75.9267 114.714 77.6695 114.714 80.429C114.714 83.1885 113.477 84.9894 111.657 84.9894ZM120.139 85.2509H120.604L122.38 82.1719C122.643 81.7071 122.905 81.2423 123.225 80.6614H123.283C123.632 81.2423 123.924 81.7071 124.186 82.1719L125.962 85.2509H126.457L123.545 80.3128L126.253 75.6653H125.787L124.098 78.6281C123.836 79.0638 123.662 79.3833 123.37 79.9062H123.312C122.992 79.3833 122.788 79.0638 122.526 78.6281L120.837 75.6653H120.342L123.05 80.2838L120.139 85.2509Z" fill="black" stroke="black"/>
<path d="M0.514282 47.4649C0.514282 47.3894 0.606707 46.5746 0.71967 45.6542C0.832633 44.7338 1.047 42.8708 1.19603 41.5141C1.92911 34.8409 4.83148 15.8648 5.57756 12.8671C6.16017 10.5262 8.5 5.797 10.132 3.66176C11.1463 2.33483 13.802 0.750002 15.5601 0.42256C18.0061 -0.0330107 31.1488 -0.0630511 36.5286 0.374632C38.6107 0.544026 38.5426 0.514451 38.5836 1.26656C38.6771 2.98208 37.8258 8.57717 36.9715 11.8611C36.1811 14.8994 35.5828 15.7601 33.9728 16.1749C33.4022 16.3219 32.5529 16.359 28.8484 16.3987C25.6604 16.4329 24.3803 16.4806 24.3097 16.5679C24.2557 16.6348 23.943 17.319 23.6148 18.0884C22.4009 20.934 21.7039 24.4708 19.9236 36.8169C19.372 40.6416 18.7801 44.5908 18.6082 45.5929C18.4363 46.5949 18.2957 47.457 18.2957 47.5085C18.2957 47.5626 14.546 47.6021 9.40498 47.6021C2.15471 47.6021 0.514282 47.5768 0.514282 47.4649V47.4649Z" fill="#666666"/>
<path d="M14.5605 69.5424C8.9409 69.3703 6.52196 69.1305 5.56388 68.6505C2.53648 67.134 0.542601 62.8734 0.0856767 56.9445C-0.140746 54.0064 0.0928584 51.6977 0.653648 51.3311C1.09214 51.0445 3.69181 50.9275 9.77317 50.9209C17.2299 50.9127 17.524 50.9531 18.8352 52.1641C19.5527 52.8269 20.0465 53.0123 21.5047 53.1667C22.7697 53.3007 26.0537 53.2965 27.5546 53.1591C29.2404 53.0048 29.96 52.8201 31.262 52.2078C31.8833 51.9156 32.5738 51.6522 32.7964 51.6224C33.165 51.5731 33.2121 51.595 33.3235 51.8684C33.7523 52.9194 33.758 54.7947 33.343 58.1993C33.1702 59.6163 32.9366 61.7441 32.8239 62.9276C32.6746 64.496 32.5467 65.307 32.3523 65.9191C32.1101 66.6817 32.0201 66.8225 31.372 67.4524C29.9305 68.8534 29.2342 69.2194 27.6067 69.4318C26.4175 69.587 18.271 69.656 14.5605 69.5424L14.5605 69.5424Z" fill="#666666"/>
<path d="M36.7264 69.5357C35.3733 69.3542 35.0044 69.0748 34.6109 67.9337C34.1498 66.5967 34.1944 66.1354 35.0845 63.0325C36.1678 59.256 38.0126 53.8932 38.8615 52.0526L39.2054 51.307L39.7191 51.2402C40.9962 51.0743 45.9032 50.9477 54.7 50.8535C65.742 50.7354 67.0869 50.6548 67.4853 50.0874C67.7215 49.751 67.6832 48.1586 67.3851 45.9125C66.9083 42.3202 65.2151 31.0791 64.9518 29.7581C64.631 28.1484 64.2274 27.2523 63.6662 26.9042C63.2868 26.6689 63.1835 26.66 60.2188 26.6091C57.4669 26.5618 57.1329 26.5371 56.8635 26.3608L56.5643 26.1651L56.6267 24.8913C56.692 23.5564 57.0538 21.7835 57.5933 20.1542C57.9149 19.183 58.1761 18.7219 58.5394 18.4844C59.417 17.9108 64.1879 17.3526 65.2321 17.7014C66.7204 18.1986 67.1018 19.4632 67.5864 25.507C67.6743 26.6039 67.7582 27.83 67.7728 28.2318L67.7993 28.9624L68.2728 29.1032C68.539 29.1824 69.6902 29.2845 70.9032 29.3366C73.1831 29.4343 74.0234 29.5577 74.3817 29.8471C74.5791 30.0066 74.6156 30.2226 74.7482 32.0167C74.9576 34.8515 75.2725 40.4631 75.6346 47.8123C75.9676 54.57 75.9756 54.7173 76.2219 58.5189C76.4895 62.6509 76.778 64.4892 77.3275 65.5637C77.4446 65.7929 77.8033 66.3444 78.1244 66.7894C79.1707 68.2392 79.3228 68.7283 78.8442 69.1039C78.2842 69.5434 77.4467 69.5929 70.5875 69.5922C64.1002 69.5914 61.5385 69.4852 60.9077 69.1908C60.351 68.931 59.9393 66.9915 59.4888 62.5076C59.1727 59.3606 58.8419 57.0003 58.6659 56.6353C58.5122 56.3166 57.9591 55.9332 57.448 55.7912C56.8133 55.6149 54.6984 55.4447 53.8949 55.5053C52.1579 55.6364 51.532 56.3129 50.67 58.9913C49.7842 61.7432 49.4235 63.251 49.3642 64.4498C49.309 65.563 49.3185 65.6317 49.6254 66.3513C50.0215 67.2799 50.2045 68.0863 50.1585 68.7007C50.1261 69.1335 50.088 69.1905 49.7023 69.3829C49.2975 69.5848 49.0537 69.5935 43.3368 69.6089C40.0672 69.6178 37.0925 69.5848 36.7264 69.5357H36.7264Z" fill="#666666"/>
<path d="M44.6522 47.5044C41.7729 47.4249 40.7355 47.3014 40.4359 47.0024C40.1046 46.6719 40.4531 45.2877 42.3724 39.3101C43.0676 37.1451 44.8676 31.4769 46.3725 26.7141C47.8775 21.9512 49.8009 15.9052 50.6467 13.2784C52.5916 7.23889 52.7419 6.67219 52.6763 5.62807C52.6307 4.90151 52.5627 4.70116 51.9308 3.43183C51.1262 1.81557 51.0209 1.43062 51.2771 1.04055C51.5149 0.678508 52.0271 0.478332 53.2272 0.278414C54.0742 0.13732 55.3909 0.111416 61.8549 0.108684C70.0423 0.105223 70.9901 0.153029 72.0177 0.621317C73.5119 1.30223 73.6916 2.53456 74.5905 18.2634C74.7192 20.5161 74.798 22.9479 74.7781 24.0554C74.7466 25.8031 74.725 25.9896 74.5221 26.2606L74.3004 26.5566L72.4131 26.5852L70.5257 26.6137L70.1313 23.1213C69.7053 19.3489 69.1435 15.2598 68.9988 14.8783L68.9089 14.6413L62.6793 14.6683L56.4496 14.6954L55.1205 19.209C53.8493 23.5257 52.7862 27.3839 52.6439 28.1971C52.5897 28.5074 52.6206 28.6182 52.8107 28.7949C53.2404 29.1943 53.9402 29.264 58.1688 29.3288L62.2161 29.3907L62.4499 30.7898C63.0081 34.1312 64.6191 46.2997 64.5697 46.8017C64.5408 47.0959 64.4952 47.1326 64.0696 47.2046C62.4605 47.4766 50.3913 47.663 44.6522 47.5044V47.5044ZM58.9469 42.0252C59.4921 41.8838 59.8175 41.5061 59.9589 40.8506C60.2664 39.4243 60.1735 33.8664 59.8168 32.3601C59.6555 31.6787 59.3976 31.2276 59.1695 31.2276C58.7121 31.2276 58.3264 32.1045 57.7842 34.3766C57.3759 36.0877 57.2176 36.6192 56.5809 38.4178C56.2265 39.4189 56.1335 39.8282 56.1278 40.4122C56.1125 41.9812 57.0495 42.5174 58.9469 42.0252V42.0252Z" fill="#666666"/>
<path d="M94.3662 37.3894C94.3662 37.3723 94.464 36.9117 94.5835 36.366C94.703 35.8202 94.8903 34.736 94.9998 33.9567C95.2653 32.0669 95.7539 26.831 95.6764 26.7059C95.6396 26.6464 94.0628 26.6087 91.7346 26.6116C87.4166 26.6171 87.2727 26.5976 86.9348 25.9612C86.7874 25.6837 86.7516 25.3742 86.7607 24.4572C86.7739 23.1386 86.8639 22.3729 87.7294 16.2158C88.6339 9.78181 88.82 8.09866 88.8319 6.2455L88.8424 4.61852L88.4583 3.77879C87.9832 2.74008 87.8429 2.08699 87.8427 0.91329L87.8426 0L89.4999 0.0228098C90.4114 0.0353551 96.0102 0.0958519 101.942 0.157247C112.969 0.27139 117.681 0.388426 119.352 0.589713C120.692 0.751147 121.491 1.02645 122.261 1.59224C124.289 3.08138 125.478 5.17175 126.025 8.20786C126.442 10.5203 126.51 11.7647 126.495 16.7946C126.481 21.3137 126.464 21.724 126.232 23.1976L125.983 24.7721L122.143 24.8358C118.148 24.902 117.475 24.9694 116.745 25.3756C116.13 25.7182 115.925 26.1918 115.831 27.4871C115.744 28.6884 115.642 28.9685 115.256 29.0652C114.916 29.1504 114.722 29.5365 114.589 30.3993C114.381 31.74 113.575 32.8894 110.938 35.6099L109.183 37.4205H101.775C97.7 37.4205 94.3662 37.4065 94.3662 37.3894V37.3894ZM106.659 28.0726C107.283 27.939 107.609 27.6233 107.695 27.0702C107.737 26.796 107.871 26.5561 108.102 26.3413C108.303 26.1538 108.496 25.8346 108.567 25.5711C109.112 23.552 109.501 18.4897 109.207 17.229C109.032 16.4756 108.283 15.9024 107.474 15.9024C107.091 15.9024 106.926 15.9666 106.621 16.2341C105.835 16.9222 105.511 17.9399 105.194 20.7064C105.077 21.7301 104.866 23.4416 104.724 24.5097C104.437 26.6798 104.404 27.5328 104.599 27.7981C104.858 28.1527 105.737 28.2697 106.659 28.0726V28.0726Z" fill="#666666"/>
<path d="M83.6497 69.5373C81.5012 69.4106 81.5689 69.4352 81.4085 68.7232C81.2039 67.8158 81.2351 63.7669 81.4616 61.8252C81.702 59.7646 82.2694 55.8317 82.855 52.1683C83.67 47.0692 84.1412 43.9737 84.8476 39.0782C85.5991 33.8707 86.2134 30.1551 86.3718 29.8599C86.5401 29.5461 87.3485 29.4346 89.9212 29.3707L92.3674 29.3098L92.3654 29.9275C92.3642 30.2672 92.2942 32.4582 92.2096 34.7963C92.125 37.1344 92.0549 39.3495 92.0538 39.7187L92.0517 40.39L97.6545 40.3173C104.188 40.2326 107.086 40.113 108.225 39.8812C109.304 39.6614 110.236 39.1952 111.827 38.0779C114.079 36.497 115.454 35.0102 116.416 33.1168C116.577 32.7993 117.146 31.5712 117.681 30.3877L118.652 28.2359L121.766 28.2081C124.22 28.1862 124.879 28.2084 124.879 28.3131C124.878 28.5933 124.437 30.7916 124.23 31.5423C123.721 33.3889 122.634 35.7025 121.396 37.5721C120.649 38.7013 119.861 39.5631 118.472 40.7727C117.241 41.8452 117.138 42.2446 117.518 44.494C118.205 48.5598 119.562 51.7313 121.051 52.7456C121.262 52.8899 121.843 53.2205 122.342 53.4803C123.158 53.9056 123.262 53.9945 123.389 54.3726C123.575 54.9245 123.498 55.948 123.033 59.1229C122.043 65.883 121.322 68.5277 120.316 69.0824C119.475 69.5461 118.903 69.5927 114.042 69.5927C109.927 69.5927 109.396 69.5733 108.787 69.401C107.881 69.1445 107.446 68.9082 106.926 68.3906C105.795 67.2645 105.124 65.1668 104.153 59.7258C102.98 53.1547 102.746 51.936 102.353 50.3386C102.119 49.3901 101.859 48.4808 101.774 48.318C101.6 47.9823 101.364 47.9343 101.222 48.2058C100.61 49.3762 99.0981 60.7847 99.0622 64.5018C99.0442 66.3737 99.1261 66.8162 99.5797 67.296C100.115 67.8625 100.328 68.826 99.9919 69.1614C99.5938 69.5585 99.2381 69.5782 92.0517 69.5995C88.2035 69.6109 84.4225 69.5829 83.6496 69.5373H83.6497Z" fill="#666666"/>
<path d="M139.346 69.5483C138.825 69.5043 138.233 69.4315 138.03 69.3864C137.106 69.1808 136.096 68.4006 135.783 67.6509C135.346 66.603 135.144 64.7619 134.556 56.472C134.046 49.2643 133.826 46.3922 133.348 40.6745C132.777 33.859 132.663 32.177 132.649 30.3635C132.638 28.8357 132.655 28.66 132.83 28.5325C133.155 28.295 133.729 28.1847 134.642 28.1841C135.988 28.1832 136.089 28.3564 136.4 31.1702C136.624 33.2094 136.761 35.447 136.866 38.7851C136.965 41.9514 137.044 42.4782 137.532 43.2005C137.856 43.6802 138.715 44.09 139.7 44.2343C140.483 44.349 142.935 44.5583 143.497 44.5583H143.778L143.963 47.2087C144.064 48.6664 144.191 50.2133 144.243 50.6463C144.575 53.3718 145.294 54.3088 147.127 54.4041C148.126 54.456 148.61 54.3431 149.392 53.8766C150.185 53.404 150.848 52.498 151.347 51.2071C152.004 49.5088 152.424 49.2519 154.571 49.2375C156.32 49.2258 156.264 49.1162 155.667 51.3937C154.991 53.9723 154.278 56.4463 152.216 63.3581L150.413 69.4045L147.352 69.4735C145.668 69.5114 143.391 69.5617 142.292 69.5853C141.192 69.6089 139.866 69.5923 139.346 69.5483V69.5483Z" fill="#666666"/>
<path d="M147.121 49.6482C146.88 49.2817 146.775 47.7049 146.769 44.3746L146.763 41.6192H143.502C141.708 41.6192 140.24 41.601 140.24 41.5788C140.24 41.5566 140.1 40.0805 139.929 38.2986C139.758 36.5167 139.519 33.8307 139.398 32.3297C139.011 27.5291 138.755 25.5577 138.492 25.3399C138.126 25.0366 137.097 24.9135 134.443 24.8556L131.749 24.7968L131.685 22.9476C131.617 21.0072 131.362 17.5948 130.923 12.7535C130.365 6.598 130.012 4.73617 129.188 3.5874C128.312 2.36785 127.908 1.00706 128.295 0.580736C128.693 0.142291 129.312 0.104771 136.084 0.109019C144.063 0.114024 146.887 0.283776 147.303 0.783481C147.397 0.896787 147.575 1.36018 147.697 1.81324C148.378 4.32878 148.647 8.53309 148.874 20.2061C148.935 23.3524 149.018 26.1393 149.058 26.3991C149.177 27.1744 149.399 27.0133 149.78 25.8743C150.71 23.0988 153.466 12.1853 154.347 7.7943C154.676 6.1575 154.677 6.13276 154.523 5.22263C154.438 4.71719 154.212 3.92577 154.022 3.46392C153.752 2.80719 153.674 2.46308 153.666 1.88495C153.653 1.04905 153.819 0.688157 154.336 0.421096C154.891 0.134833 157.141 0.0297724 161.619 0.0809445C165.081 0.120506 165.981 0.160808 166.521 0.300442C167.765 0.622426 168.249 0.980929 168.669 1.89073C168.885 2.35847 168.909 2.55967 168.896 3.77882C168.867 6.49195 168.132 9.48048 163.9 24.0898C160.446 36.0161 158.425 42.7419 157.972 43.8164C157.836 44.138 157.692 44.5751 157.652 44.7878C157.526 45.4568 157.432 45.4906 154.611 45.8744C150.624 46.4167 150.304 46.5552 149.708 47.9953C149.072 49.5342 148.695 49.9105 147.792 49.9112C147.376 49.9115 147.266 49.868 147.121 49.6482H147.121Z" fill="#666666"/>
<path d="M184.904 50.466C184.616 50.396 184.321 50.1208 184.203 49.8119C184.123 49.6046 183.484 46.1393 183.484 45.9136C183.484 45.8797 179.4 45.8209 174.409 45.783C164.351 45.7067 162.119 45.6031 161.87 45.2009C161.723 44.9632 163.631 38.8705 164.922 35.4579C165.232 34.6381 165.53 33.6934 165.585 33.3585C165.709 32.6045 166.895 28.8469 169.424 21.2034C173.342 9.35813 173.383 9.17365 173.383 3.45004V0.0354004L181.827 0.0830175C190.822 0.133746 191.159 0.152292 192.529 0.671343C194.048 1.2475 194.641 2.43389 194.945 5.51087C195.204 8.13113 195.693 16.8538 195.895 22.4629C195.954 24.0794 196.031 26.1423 196.067 27.0471L196.133 28.6921L195.674 28.7498C195.422 28.7816 194.079 28.8573 192.69 28.9181C191.301 28.9789 189.94 29.0555 189.665 29.0883L189.165 29.148V39.8448V50.5415L187.14 50.5293C186.026 50.5226 185.02 50.4941 184.904 50.466V50.466ZM179.385 41.6676C179.783 41.308 179.851 40.7575 179.847 37.893C179.843 34.9796 179.754 34.2717 179.393 34.2717C178.932 34.2717 178.516 35.2844 178.383 36.7307C178.301 37.6226 178.162 38.0505 177.954 38.0505C177.605 38.0505 177.184 40.1658 177.369 40.9892C177.481 41.4851 177.721 41.7951 178.05 41.8669C178.474 41.9595 179.178 41.8543 179.385 41.6676Z" fill="#666666"/>
<path d="M157.811 69.5281C157.088 69.4803 156.396 69.3966 156.274 69.3422C155.841 69.1491 155.691 67.7322 155.921 66.0051C156.318 63.0245 157.028 60.3665 159.304 53.349L160.691 49.0717H170.755H180.819L181.062 50.2397C181.628 52.9689 182.391 53.54 185.43 53.5091C186.713 53.4961 192.072 53.0298 192.18 52.9218C192.218 52.8833 192.527 35.2734 192.53 32.9331L192.532 31.7522L193.979 31.7537C194.774 31.7545 195.525 31.7818 195.647 31.8145C195.912 31.8853 195.796 30.4532 196.636 44.0333C197.49 57.8578 197.734 61.2058 198.059 63.5571C198.34 65.6002 198.493 66.0387 199.183 66.791C199.719 67.3757 199.997 67.9986 200 68.6193C200.005 69.6036 199.727 69.6382 191.795 69.6402C184.247 69.6422 182.467 69.5238 181.847 68.9792C181.346 68.5398 180.99 66.5214 180.642 62.1625C180.398 59.0999 180.278 58.1984 179.996 57.2866C179.756 56.5127 179.266 55.9601 178.672 55.7956C177.494 55.4693 173.611 55.8758 173.048 56.3843C172.816 56.5935 172.159 58.2543 171.427 60.4793C170.6 62.9948 170.316 64.1128 170.312 64.8803C170.308 65.5011 170.35 65.6315 170.795 66.3959C171.726 67.9938 171.945 68.9546 171.454 69.276C171.319 69.3643 170.857 69.482 170.428 69.5376C169.493 69.6587 159.676 69.6513 157.811 69.5281L157.811 69.5281Z" fill="#666666"/>
<path d="M129.508 80.8767C129.216 80.5853 129.204 79.4195 129.49 79.161C129.668 79.0005 131.45 78.9873 152.998 78.9873C173.511 78.9873 176.333 79.0061 176.471 79.1437C176.845 79.517 176.801 80.6506 176.401 80.9298C176.204 81.0678 173.387 81.0866 152.948 81.0866C129.859 81.0866 129.717 81.0854 129.508 80.8767H129.508Z" fill="#666666"/>
<path d="M23.5566 80.8767C23.2645 80.5853 23.2523 79.4195 23.5386 79.161C23.7164 79.0005 25.4988 78.9873 47.0467 78.9873C67.8489 78.9873 70.3798 79.0046 70.5236 79.1481C70.7329 79.3569 70.8398 79.9407 70.7532 80.4013C70.6128 81.1477 72.7304 81.0866 46.9962 81.0866C23.9073 81.0866 23.7658 81.0854 23.5566 80.8767V80.8767Z" fill="#666666"/>
</mask>
<g mask="url(#mask0)">
<ellipse cx="99.8849" cy="42.7641" rx="107.568" ry="107.314" fill="url(#paint0_linear)"/>
</g>
<defs>
<linearGradient id="paint0_linear" x1="99.8849" y1="-64.5497" x2="99.8849" y2="150.078" gradientUnits="userSpaceOnUse">
<stop stop-color="#222D66" stop-opacity="0.38"/>
<stop offset="0.760417" stop-opacity="0.81"/>
</linearGradient>
</defs>
</svg>
