<svg width="200" height="86" viewBox="0 0 200 86" fill="none" xmlns="http://www.w3.org/2000/svg">
<mask id="mask0" mask-type="alpha" maskUnits="userSpaceOnUse" x="0" y="0" width="200" height="86">
<path d="M74.114 85.2509H76.618C78.8599 85.2509 80.141 84.2923 80.141 82.4623C80.141 81.1261 79.253 80.3419 77.8263 80.1385V80.0804C78.9618 79.79 79.5296 79.0057 79.5296 77.989C79.5296 76.4205 78.4232 75.6653 76.4433 75.6653H74.114V85.2509ZM74.5799 79.9352V76.0719H76.2395C78.1612 76.0719 79.0638 76.6238 79.0638 77.989C79.0638 79.2671 78.2485 79.9352 76.1521 79.9352H74.5799ZM74.5799 84.8442V80.3419H76.4433C78.5105 80.3419 79.6752 81.039 79.6752 82.4914C79.6752 84.118 78.5105 84.8442 76.4433 84.8442H74.5799ZM85.813 85.2509H86.2789V80.7195H88.4335L91.1413 85.2509H91.6945L88.9576 80.6904C90.559 80.5452 91.5489 79.6593 91.5489 78.1343C91.5489 76.3624 90.3551 75.6653 88.4626 75.6653H85.813V85.2509ZM86.2789 80.3128V76.0719H88.2879C90.064 76.0719 91.0539 76.6238 91.0539 78.1343C91.0539 79.6157 90.064 80.3128 88.2879 80.3128H86.2789ZM100.016 85.4252C102.083 85.4252 103.568 83.4499 103.568 80.429C103.568 77.4081 102.083 75.491 100.016 75.491C97.9488 75.491 96.4639 77.4081 96.4639 80.429C96.4639 83.4499 97.9488 85.4252 100.016 85.4252ZM100.016 84.9894C98.1963 84.9894 96.9588 83.1885 96.9588 80.429C96.9588 77.6695 98.1963 75.9267 100.016 75.9267C101.836 75.9267 103.073 77.6695 103.073 80.429C103.073 83.1885 101.836 84.9894 100.016 84.9894ZM111.657 85.4252C113.724 85.4252 115.209 83.4499 115.209 80.429C115.209 77.4081 113.724 75.491 111.657 75.491C109.59 75.491 108.105 77.4081 108.105 80.429C108.105 83.4499 109.59 85.4252 111.657 85.4252ZM111.657 84.9894C109.837 84.9894 108.6 83.1885 108.6 80.429C108.6 77.6695 109.837 75.9267 111.657 75.9267C113.477 75.9267 114.714 77.6695 114.714 80.429C114.714 83.1885 113.477 84.9894 111.657 84.9894ZM120.139 85.2509H120.604L122.38 82.1719C122.642 81.7071 122.905 81.2423 123.225 80.6614H123.283C123.632 81.2423 123.924 81.7071 124.186 82.1719L125.962 85.2509H126.457L123.545 80.3128L126.253 75.6653H125.787L124.098 78.6281C123.836 79.0638 123.662 79.3833 123.37 79.9062H123.312C122.992 79.3833 122.788 79.0638 122.526 78.6281L120.837 75.6653H120.342L123.05 80.2838L120.139 85.2509Z" fill="white"/>
<path d="M0.514404 47.4645C0.514404 47.389 0.606828 46.5742 0.719791 45.6538C0.832754 44.7334 1.04712 42.8703 1.19615 41.5136C1.92923 34.8404 4.83159 15.8643 5.57767 12.8666C6.16027 10.5257 8.50011 5.79651 10.1321 3.66128C11.1464 2.33434 13.8021 0.749514 15.5602 0.422072C18.0061 -0.033499 31.1489 -0.0635395 36.5286 0.374144C38.6107 0.543538 38.5426 0.513963 38.5836 1.26607C38.6772 2.98159 37.8258 8.57669 36.9715 11.8606C36.1811 14.8989 35.5828 15.7596 33.9728 16.1744C33.4022 16.3214 32.5529 16.3585 28.8485 16.3982C25.6605 16.4324 24.3803 16.4801 24.3098 16.5674C24.2558 16.6343 23.943 17.3185 23.6148 18.0879C22.401 20.9335 21.7039 24.4703 19.9236 36.8165C19.3721 40.6411 18.7802 44.5903 18.6083 45.5924C18.4364 46.5945 18.2957 47.4565 18.2957 47.508C18.2957 47.5622 14.5461 47.6017 9.40508 47.6017C2.15483 47.6017 0.514404 47.5763 0.514404 47.4645V47.4645Z" fill="white"/>
<path d="M14.5604 69.5424C8.94088 69.3703 6.52194 69.1305 5.56387 68.6506C2.53648 67.134 0.5426 62.8734 0.0856765 56.9445C-0.140746 54.0064 0.0928582 51.6977 0.653647 51.3311C1.09214 51.0445 3.6918 50.9275 9.77315 50.9209C17.2298 50.9127 17.524 50.9531 18.8352 52.1641C19.5527 52.8269 20.0465 53.0123 21.5046 53.1667C22.7696 53.3007 26.0536 53.2965 27.5545 53.1591C29.2403 53.0048 29.9599 52.8201 31.2619 52.2078C31.8833 51.9156 32.5737 51.6522 32.7963 51.6224C33.1649 51.5731 33.212 51.595 33.3235 51.8684C33.7522 52.9194 33.7579 54.7947 33.3429 58.1993C33.1701 59.6163 32.9366 61.7441 32.8239 62.9276C32.6745 64.496 32.5466 65.307 32.3523 65.9191C32.1101 66.6817 32.02 66.8225 31.372 67.4524C29.9304 68.8534 29.2341 69.2194 27.6067 69.4318C26.4174 69.587 18.2709 69.6561 14.5604 69.5424L14.5604 69.5424Z" fill="white"/>
<path d="M36.7259 69.5356C35.3728 69.3541 35.0039 69.0747 34.6104 67.9336C34.1493 66.5966 34.1939 66.1353 35.084 63.0324C36.1673 59.2559 38.0121 53.8931 38.861 52.0525L39.2049 51.3069L39.7186 51.2401C40.9957 51.0742 45.9027 50.9476 54.6995 50.8534C65.7415 50.7353 67.0864 50.6547 67.4848 50.0873C67.7209 49.7509 67.6827 48.1585 67.3845 45.9124C66.9077 42.3201 65.2145 31.0789 64.9513 29.758C64.6305 28.1482 64.2268 27.2522 63.6656 26.9041C63.2862 26.6687 63.1829 26.6599 60.2183 26.609C57.4664 26.5617 57.1323 26.537 56.8629 26.3607L56.5638 26.165L56.6261 24.8912C56.6915 23.5563 57.0532 21.7834 57.5927 20.1541C57.9143 19.1829 58.1756 18.7218 58.5389 18.4843C59.4165 17.9107 64.1873 17.3525 65.2316 17.7013C66.7198 18.1984 67.1012 19.463 67.5858 25.5068C67.6737 26.6037 67.7576 27.8299 67.7722 28.2317L67.7987 28.9622L68.2722 29.1031C68.5385 29.1823 69.6896 29.2844 70.9026 29.3364C73.1826 29.4342 74.0228 29.5576 74.3811 29.847C74.5785 30.0065 74.615 30.2225 74.7476 32.0166C74.957 34.8514 75.272 40.4629 75.634 47.8122C75.967 54.5699 75.9751 54.7172 76.2213 58.5188C76.4889 62.6508 76.7774 64.4891 77.3269 65.5636C77.4441 65.7928 77.8027 66.3443 78.1238 66.7893C79.1701 68.2391 79.3222 68.7282 78.8436 69.1038C78.2836 69.5433 77.4461 69.5928 70.5869 69.5921C64.0996 69.5913 61.5379 69.4851 60.9072 69.1907C60.3505 68.9309 59.9387 66.9914 59.4883 62.5075C59.1721 59.3605 58.8414 57.0002 58.6654 56.6352C58.5117 56.3165 57.9585 55.9331 57.4474 55.7911C56.8128 55.6147 54.6979 55.4446 53.8944 55.5052C52.1573 55.6363 51.5315 56.3128 50.6694 58.9912C49.7837 61.7431 49.423 63.2509 49.3636 64.4497C49.3085 65.5629 49.318 65.6316 49.6249 66.3512C50.021 67.2798 50.204 68.0862 50.158 68.7006C50.1256 69.1334 50.0874 69.1904 49.7018 69.3828C49.297 69.5847 49.0531 69.5934 43.3362 69.6088C40.0667 69.6177 37.092 69.5847 36.7259 69.5356H36.7259Z" fill="white"/>
<path d="M44.6516 47.5033C41.7723 47.4238 40.7349 47.3003 40.4353 47.0013C40.104 46.6709 40.4525 45.2867 42.3718 39.309C43.067 37.144 44.867 31.4758 46.3719 26.713C47.8768 21.9501 49.8002 15.9041 50.6461 13.2773C52.5909 7.23779 52.7413 6.67109 52.6757 5.62697C52.63 4.90041 52.562 4.70006 51.9301 3.43073C51.1255 1.81448 51.0203 1.42952 51.2765 1.03945C51.5143 0.677409 52.0265 0.477233 53.2266 0.277315C54.0736 0.136221 55.3903 0.110318 61.8542 0.107585C70.0416 0.104124 70.9893 0.151931 72.017 0.620218C73.5112 1.30113 73.6909 2.53347 74.5897 18.2623C74.7185 20.515 74.7972 22.9468 74.7773 24.0544C74.7459 25.802 74.7243 25.9885 74.5214 26.2595L74.2997 26.5555L72.4124 26.5841L70.525 26.6126L70.1306 23.1202C69.7046 19.3478 69.1428 15.2587 68.9981 14.8772L68.9082 14.6402L62.6786 14.6673L56.449 14.6943L55.1198 19.2079C53.8486 23.5246 52.7856 27.3828 52.6433 28.196C52.589 28.5063 52.6199 28.6171 52.81 28.7938C53.2397 29.1932 53.9395 29.2629 58.1682 29.3277L62.2154 29.3896L62.4492 30.7887C63.0074 34.1301 64.6184 46.2986 64.569 46.8006C64.5401 47.0949 64.4945 47.1315 64.0689 47.2035C62.4598 47.4755 50.3907 47.6619 44.6516 47.5033V47.5033ZM58.9462 42.0241C59.4914 41.8827 59.8168 41.505 59.9582 40.8495C60.2658 39.4233 60.1728 33.8653 59.8161 32.359C59.6548 31.6776 59.397 31.2266 59.1688 31.2266C58.7115 31.2266 58.3257 32.1035 57.7835 34.3755C57.3752 36.0866 57.2169 36.6181 56.5802 38.4168C56.2258 39.4178 56.1328 39.8272 56.1271 40.4111C56.1119 41.9801 57.0488 42.5163 58.9462 42.0241V42.0241Z" fill="white"/>
<path d="M94.3662 37.3894C94.3662 37.3723 94.464 36.9117 94.5835 36.366C94.703 35.8202 94.8903 34.736 94.9998 33.9567C95.2653 32.067 95.7539 26.831 95.6764 26.7059C95.6395 26.6464 94.0628 26.6087 91.7346 26.6117C87.4166 26.6171 87.2727 26.5976 86.9348 25.9612C86.7874 25.6837 86.7516 25.3742 86.7607 24.4572C86.7739 23.1386 86.8639 22.3729 87.7294 16.2158C88.6339 9.78181 88.82 8.09866 88.8319 6.24551L88.8424 4.61853L88.4583 3.77879C87.9832 2.74008 87.8429 2.08699 87.8427 0.91329L87.8426 0L89.4999 0.0228098C90.4114 0.0353551 96.0102 0.0958519 101.942 0.157247C112.969 0.27139 117.681 0.388427 119.352 0.589714C120.692 0.751147 121.491 1.02646 122.261 1.59224C124.289 3.08138 125.478 5.17175 126.025 8.20786C126.442 10.5203 126.51 11.7647 126.495 16.7946C126.481 21.3137 126.464 21.724 126.232 23.1976L125.983 24.7721L122.143 24.8358C118.148 24.902 117.475 24.9694 116.745 25.3756C116.13 25.7182 115.925 26.1918 115.831 27.4871C115.744 28.6885 115.5 28.5 115.256 29.0652C115 29.5 115 29.5 114.588 30.3993C114 31.5 113.575 32.8894 110.938 35.6099L109.183 37.4206H101.775C97.7 37.4206 94.3662 37.4065 94.3662 37.3894ZM106.658 28.0726C107.283 27.939 107.5 27.5 108 27C108.292 26.7084 108.34 26.43 108.5 26C108.567 25.8203 108.496 25.8346 108.567 25.5711C109.112 23.552 109.501 18.4897 109.207 17.229C109.032 16.4756 108.283 15.9024 107.474 15.9024C107.091 15.9024 106.926 15.9666 106.621 16.2341C105.835 16.9222 105.511 17.9399 105.194 20.7064C105.077 21.7301 104.866 23.4416 104.724 24.5097C104.437 26.6798 104.404 27.5328 104.598 27.7981C104.858 28.1527 105.737 28.2697 106.658 28.0726Z" fill="white"/>
<path d="M83.6493 69.5373C81.5008 69.4106 81.5686 69.4352 81.4081 68.7232C81.2035 67.8158 81.2347 63.7669 81.4612 61.8252C81.7016 59.7647 82.2691 55.8317 82.8546 52.1683C83.6696 47.0692 84.1408 43.9737 84.8473 39.0782C85.5987 33.8708 86.213 30.1551 86.3714 29.8599C86.5397 29.5461 87.3481 29.4346 89.9208 29.3707L92.367 29.3098L92.365 29.9275C92.3638 30.2672 92.2938 32.4582 92.2092 34.7963C92.1246 37.1344 92.0545 39.3495 92.0534 39.7187L92.0513 40.39L97.654 40.3173C104.188 40.2326 107.086 40.113 108.225 39.8812C109.304 39.6614 110.235 39.1952 111.827 38.0779C114.079 36.497 115.454 35.0103 116.415 33.1168C116.577 32.7993 117.146 31.5712 117.68 30.3877L118.652 28.2359L121.765 28.2081C124.22 28.1862 124.878 28.2084 124.878 28.3131C124.878 28.5933 124.436 30.7916 124.229 31.5423C123.721 33.3889 122.633 35.7026 121.396 37.5721C120.648 38.7013 119.861 39.5631 118.472 40.7727C117.24 41.8453 117.138 42.2446 117.518 44.4941C118.204 48.5598 119.562 51.7314 121.05 52.7456C121.262 52.8899 121.843 53.2206 122.341 53.4804C123.157 53.9056 123.262 53.9946 123.389 54.3726C123.574 54.9245 123.498 55.948 123.033 59.1229C122.043 65.883 121.321 68.5277 120.315 69.0824C119.474 69.5462 118.902 69.5927 114.041 69.5927C109.927 69.5927 109.396 69.5734 108.787 69.401C107.881 69.1446 107.445 68.9082 106.925 68.3906C105.795 67.2646 105.123 65.1668 104.152 59.7259C102.98 53.1547 102.746 51.936 102.352 50.3386C102.119 49.3901 101.858 48.4808 101.774 48.318C101.6 47.9823 101.364 47.9343 101.222 48.2058C100.61 49.3762 99.0977 60.7847 99.0618 64.5018C99.0437 66.3737 99.1257 66.8162 99.5793 67.296C100.115 67.8625 100.328 68.826 99.9915 69.1614C99.5934 69.5586 99.2377 69.5782 92.0513 69.5995C88.2031 69.6109 84.4222 69.5829 83.6492 69.5373H83.6493Z" fill="white"/>
<path d="M139.345 69.5483C138.824 69.5043 138.233 69.4315 138.03 69.3864C137.106 69.1808 136.096 68.4006 135.783 67.6509C135.345 66.603 135.143 64.7619 134.556 56.472C134.045 49.2643 133.825 46.3922 133.347 40.6745C132.777 33.859 132.663 32.177 132.649 30.3635C132.637 28.8357 132.654 28.66 132.829 28.5325C133.155 28.295 133.728 28.1847 134.642 28.1841C135.987 28.1832 136.089 28.3564 136.399 31.1702C136.624 33.2094 136.761 35.447 136.865 38.7851C136.964 41.9514 137.044 42.4782 137.532 43.2005C137.856 43.6802 138.715 44.09 139.699 44.2343C140.482 44.349 142.935 44.5583 143.497 44.5583H143.778L143.963 47.2087C144.064 48.6664 144.19 50.2133 144.243 50.6463C144.575 53.3718 145.294 54.3088 147.127 54.4041C148.125 54.456 148.61 54.3431 149.392 53.8766C150.184 53.404 150.848 52.498 151.347 51.2071C152.003 49.5088 152.424 49.2519 154.571 49.2375C156.319 49.2258 156.264 49.1162 155.667 51.3937C154.991 53.9723 154.277 56.4463 152.216 63.3581L150.412 69.4045L147.351 69.4735C145.668 69.5114 143.391 69.5617 142.291 69.5853C141.192 69.6089 139.866 69.5923 139.345 69.5483V69.5483Z" fill="white"/>
<path d="M147.121 49.6476C146.88 49.2812 146.775 47.7043 146.768 44.374L146.763 41.6186H143.501C141.707 41.6186 140.239 41.6004 140.239 41.5782C140.239 41.556 140.1 40.0799 139.929 38.298C139.758 36.5161 139.519 33.8301 139.398 32.3291C139.01 27.5285 138.755 25.5571 138.492 25.3393C138.126 25.036 137.097 24.9129 134.442 24.855L131.749 24.7962L131.684 22.947C131.617 21.0066 131.362 17.5942 130.923 12.7528C130.364 6.59739 130.012 4.73557 129.187 3.58679C128.312 2.36724 127.908 1.00645 128.294 0.580126C128.692 0.141681 129.312 0.10416 136.083 0.108408C144.063 0.113414 146.886 0.283165 147.303 0.782871C147.397 0.896177 147.574 1.35957 147.697 1.81263C148.377 4.32817 148.646 8.53248 148.874 20.2055C148.935 23.3518 149.018 26.1387 149.058 26.3985C149.177 27.1738 149.398 27.0127 149.78 25.8737C150.709 23.0982 153.466 12.1847 154.347 7.7937C154.675 6.15689 154.677 6.13215 154.523 5.22202C154.437 4.71658 154.212 3.92516 154.022 3.46331C153.752 2.80658 153.674 2.46247 153.665 1.88434C153.653 1.04844 153.818 0.687547 154.336 0.420485C154.891 0.134223 157.14 0.029162 161.618 0.0803341C165.081 0.119895 165.981 0.160198 166.52 0.299831C167.764 0.621816 168.249 0.980319 168.668 1.89012C168.884 2.35786 168.908 2.55906 168.895 3.77821C168.866 6.49135 168.131 9.47988 163.9 24.0892C160.446 36.0155 158.424 42.7413 157.971 43.8158C157.835 44.1374 157.692 44.5745 157.652 44.7872C157.526 45.4562 157.431 45.49 154.61 45.8738C150.624 46.4161 150.304 46.5547 149.708 47.9947C149.071 49.5336 148.695 49.9099 147.791 49.9106C147.376 49.9109 147.265 49.8674 147.121 49.6476H147.121Z" fill="white"/>
<path d="M184.903 50.4655C184.616 50.3955 184.32 50.1203 184.202 49.8115C184.123 49.6041 183.484 46.1388 183.483 45.9132C183.483 45.8792 179.399 45.8204 174.408 45.7825C164.35 45.7062 162.118 45.6026 161.869 45.2004C161.722 44.9628 163.631 38.87 164.921 35.4574C165.231 34.6376 165.53 33.6929 165.585 33.3581C165.708 32.604 166.895 28.8464 169.423 21.2029C173.341 9.35764 173.382 9.17317 173.382 3.44955V0.0349121L181.826 0.0825292C190.821 0.133258 191.159 0.151804 192.528 0.670855C194.048 1.24701 194.64 2.4334 194.944 5.51038C195.204 8.13065 195.693 16.8533 195.895 22.4625C195.953 24.079 196.03 26.1418 196.066 27.0466L196.132 28.6916L195.673 28.7494C195.421 28.7811 194.078 28.8568 192.689 28.9176C191.301 28.9784 189.939 29.055 189.664 29.0879L189.165 29.1475V39.8443V50.541L187.139 50.5288C186.025 50.5221 185.019 50.4937 184.903 50.4655ZM179.384 41.6671C179.783 41.3075 179.85 40.7571 179.846 37.8925C179.843 34.9791 179.754 34.2712 179.392 34.2712C178.931 34.2712 178.5 35 178 36.5C177.742 37.2739 177.5 37 177.401 37.8925C177.343 38.4222 177.183 40.1653 177.369 40.9887C177.48 41.4846 177.721 41.7946 178.049 41.8664C178.473 41.959 179.177 41.8539 179.384 41.6671Z" fill="white"/>
<path d="M157.811 69.5283C157.088 69.4806 156.396 69.3969 156.274 69.3424C155.841 69.1494 155.691 67.7325 155.921 66.0054C156.318 63.0248 157.028 60.3668 159.304 53.3493L160.691 49.0719H170.755H180.819L181.062 50.2399C181.628 52.9692 182.391 53.5402 185.43 53.5094C186.713 53.4963 192.072 53.0301 192.18 52.9221C192.218 52.8835 192.527 35.2736 192.53 32.9333L192.532 31.7524L193.979 31.7539C194.774 31.7547 195.525 31.7821 195.647 31.8147C195.912 31.8856 195.796 30.4534 196.635 44.0335C197.49 57.8581 197.734 61.206 198.059 63.5573C198.34 65.6005 198.493 66.0389 199.183 66.7913C199.719 67.3759 199.997 67.9989 200 68.6195C200.004 69.6039 199.727 69.6384 191.795 69.6405C184.247 69.6425 182.467 69.5241 181.847 68.9794C181.346 68.54 180.99 66.5217 180.642 62.1628C180.398 59.1002 180.278 58.1987 179.996 57.2868C179.756 56.5129 179.266 55.9604 178.672 55.7959C177.494 55.4696 173.611 55.8761 173.048 56.3845C172.816 56.5938 172.159 58.2546 171.427 60.4795C170.599 62.995 170.316 64.1131 170.312 64.8806C170.308 65.5014 170.35 65.6317 170.795 66.3962C171.726 67.9941 171.945 68.9549 171.454 69.2763C171.319 69.3646 170.857 69.4823 170.428 69.5379C169.493 69.659 159.676 69.6516 157.811 69.5284L157.811 69.5283Z" fill="white"/>
<path d="M129.508 80.8767C129.216 80.5853 129.203 79.4195 129.49 79.161C129.667 79.0005 131.45 78.9873 152.998 78.9873C173.511 78.9873 176.332 79.0061 176.47 79.1437C176.844 79.5171 176.8 80.6506 176.401 80.9298C176.203 81.0678 173.387 81.0867 152.947 81.0867C129.858 81.0867 129.717 81.0854 129.508 80.8767H129.508Z" fill="black"/>
<path d="M23.5562 80.8767C23.2642 80.5853 23.2519 79.4195 23.5382 79.161C23.716 79.0005 25.4985 78.9873 47.0462 78.9873C67.8484 78.9873 70.3792 79.0046 70.5231 79.1481C70.7323 79.3569 70.8393 79.9407 70.7526 80.4013C70.6123 81.1477 72.7299 81.0866 46.9958 81.0866C23.907 81.0866 23.7654 81.0854 23.5562 80.8767V80.8767Z" fill="black"/>
</mask>
<g mask="url(#mask0)">
<rect x="-3" y="95" width="99" height="209" transform="rotate(-90 -3 95)" fill="url(#paint0_linear)"/>
</g>
<defs>
<linearGradient id="paint0_linear" x1="46.5" y1="95" x2="46.5" y2="304" gradientUnits="userSpaceOnUse">
<stop offset="0.135417" stop-color="#8CEABB" stop-opacity="0.58"/>
<stop offset="0.963542" stop-color="#378F7B"/>
</linearGradient>
</defs>
</svg>
