<svg width="120" height="58" viewBox="0 0 120 58" fill="none" xmlns="http://www.w3.org/2000/svg">
<mask id="mask0" mask-type="alpha" maskUnits="userSpaceOnUse" x="0" y="0" width="120" height="58">
<path d="M44.4683 56.474H45.9707C47.3159 56.474 48.0845 55.8463 48.0845 54.648C48.0845 53.7731 47.5517 53.2596 46.6957 53.1264V53.0884C47.377 52.8982 47.7177 52.3847 47.7177 51.719C47.7177 50.6919 47.0538 50.1974 45.8659 50.1974H44.4683V56.474ZM44.7478 52.9933V50.4637H45.7436C46.8966 50.4637 47.4381 50.825 47.4381 51.719C47.4381 52.5558 46.949 52.9933 45.6912 52.9933H44.7478ZM44.7478 56.2077V53.2596H45.8659C47.1062 53.2596 47.805 53.7161 47.805 54.6671C47.805 55.7322 47.1062 56.2077 45.8659 56.2077H44.7478ZM51.4877 56.474H51.7672V53.5068H53.06L54.6847 56.474H55.0166L53.3745 53.4878C54.3353 53.3927 54.9293 52.8126 54.9293 51.8141C54.9293 50.6539 54.213 50.1974 53.0775 50.1974H51.4877V56.474ZM51.7672 53.2406V50.4637H52.9726C54.0383 50.4637 54.6323 50.825 54.6323 51.8141C54.6323 52.7841 54.0383 53.2406 52.9726 53.2406H51.7672ZM60.0095 56.5881C61.2499 56.5881 62.1409 55.2947 62.1409 53.3166C62.1409 51.3386 61.2499 50.0833 60.0095 50.0833C58.7692 50.0833 57.8782 51.3386 57.8782 53.3166C57.8782 55.2947 58.7692 56.5881 60.0095 56.5881ZM60.0095 56.3028C58.9177 56.3028 58.1752 55.1235 58.1752 53.3166C58.1752 51.5097 58.9177 50.3686 60.0095 50.3686C61.1014 50.3686 61.8439 51.5097 61.8439 53.3166C61.8439 55.1235 61.1014 56.3028 60.0095 56.3028ZM66.994 56.5881C68.2344 56.5881 69.1253 55.2947 69.1253 53.3166C69.1253 51.3386 68.2344 50.0833 66.994 50.0833C65.7537 50.0833 64.8627 51.3386 64.8627 53.3166C64.8627 55.2947 65.7537 56.5881 66.994 56.5881ZM66.994 56.3028C65.9022 56.3028 65.1597 55.1235 65.1597 53.3166C65.1597 51.5097 65.9022 50.3686 66.994 50.3686C68.0859 50.3686 68.8284 51.5097 68.8284 53.3166C68.8284 55.1235 68.0859 56.3028 66.994 56.3028ZM72.0831 56.474H72.3626L73.4282 54.4578C73.5855 54.1535 73.7427 53.8492 73.9349 53.4688H73.9698C74.1794 53.8492 74.3541 54.1535 74.5114 54.4578L75.577 56.474H75.874L74.127 53.2406L75.7517 50.1974H75.4722L74.4589 52.1374C74.3017 52.4227 74.1969 52.6319 74.0222 52.9743H73.9873C73.7951 52.6319 73.6728 52.4227 73.5156 52.1374L72.5023 50.1974H72.2054L73.83 53.2215L72.0831 56.474Z" fill="black" stroke="black"/>
<path d="M0.308708 31.7317C0.308708 31.6823 0.364163 31.1487 0.431941 30.5461C0.499718 29.9434 0.628337 28.7235 0.717759 27.8351C1.1576 23.4656 2.89903 11.0402 3.34667 9.07734C3.69624 7.54454 5.10014 4.44794 6.07936 3.0498C6.6879 2.18094 8.28134 1.14321 9.33618 0.928804C10.8038 0.6305 18.6894 0.61083 21.9173 0.897421C23.1666 1.00834 23.1257 0.988973 23.1503 1.48145C23.2064 2.60475 22.6956 6.26836 22.183 8.41862C21.7088 10.4081 21.3498 10.9716 20.3838 11.2433C20.0415 11.3396 19.5319 11.3638 17.3092 11.3898C15.3964 11.4122 14.6283 11.4434 14.586 11.5006C14.5536 11.5444 14.3659 11.9924 14.169 12.4962C13.4407 14.3595 13.0224 16.6753 11.9543 24.7595C11.6234 27.2638 11.2682 29.8497 11.1651 30.5059C11.0619 31.162 10.9775 31.7265 10.9775 31.7602C10.9775 31.7957 8.72776 31.8215 5.64312 31.8215C1.29297 31.8215 0.308708 31.805 0.308708 31.7317V31.7317Z" fill="#666666"/>
<path d="M8.73628 46.1883C5.36454 46.0756 3.91318 45.9186 3.33833 45.6043C1.52189 44.6113 0.325561 41.8215 0.051406 37.9393C-0.0844477 36.0155 0.055715 34.5037 0.392189 34.2637C0.655285 34.076 2.21509 33.9995 5.8639 33.9951C10.3379 33.9898 10.5144 34.0162 11.3011 34.8092C11.7316 35.2431 12.0279 35.3646 12.9028 35.4657C13.6618 35.5534 15.6322 35.5507 16.5327 35.4607C17.5442 35.3596 17.976 35.2387 18.7572 34.8378C19.13 34.6464 19.5443 34.4739 19.6778 34.4544C19.899 34.4221 19.9272 34.4365 19.9941 34.6155C20.2513 35.3037 20.2548 36.5316 20.0058 38.7609C19.9021 39.6888 19.762 41.082 19.6944 41.8569C19.6047 42.884 19.528 43.415 19.4114 43.8158C19.2661 44.3151 19.2121 44.4073 18.8232 44.8198C17.9583 45.7371 17.5405 45.9768 16.564 46.1158C15.8505 46.2175 10.9626 46.2627 8.73628 46.1883L8.73628 46.1883Z" fill="#666666"/>
<path d="M22.0359 46.1839C21.224 46.0651 21.0027 45.8822 20.7666 45.1349C20.4899 44.2595 20.5167 43.9574 21.0508 41.9257C21.7008 39.4529 22.8076 35.9414 23.317 34.7362L23.5233 34.2479L23.8316 34.2042C24.5978 34.0956 27.542 34.0127 32.8201 33.951C39.4453 33.8737 40.2522 33.8209 40.4913 33.4494C40.6329 33.2291 40.61 32.1864 40.4311 30.7157C40.145 28.3635 39.1291 21.0029 38.9712 20.1379C38.7787 19.0839 38.5365 18.4972 38.1998 18.2693C37.9721 18.1151 37.9102 18.1093 36.1314 18.076C34.4802 18.0451 34.2798 18.0289 34.1181 17.9135L33.9386 17.7853L33.9761 16.9512C34.0153 16.0771 34.2323 14.9162 34.556 13.8494C34.749 13.2135 34.9057 12.9116 35.1237 12.7561C35.6503 12.3805 38.5128 12.015 39.1393 12.2434C40.0323 12.5689 40.2611 13.3969 40.5519 17.3543C40.6047 18.0726 40.655 18.8755 40.6637 19.1386L40.6797 19.6169L40.9637 19.7091C41.1235 19.761 41.8142 19.8279 42.542 19.8619C43.9099 19.926 44.4141 20.0067 44.6291 20.1962C44.7475 20.3007 44.7694 20.4421 44.849 21.6169C44.9746 23.4731 45.1636 27.1475 45.3808 31.9597C45.5806 36.3845 45.5855 36.481 45.7332 38.9702C45.8937 41.6758 46.0668 42.8795 46.3966 43.5831C46.4668 43.7332 46.682 44.0943 46.8747 44.3857C47.5025 45.335 47.5938 45.6553 47.3066 45.9012C46.9706 46.189 46.4681 46.2214 42.3526 46.2209C38.4602 46.2204 36.9232 46.1509 36.5447 45.9581C36.2107 45.788 35.9636 44.518 35.6934 41.582C35.5037 39.5214 35.3052 37.9759 35.1996 37.7369C35.1074 37.5282 34.7755 37.2771 34.4689 37.1842C34.0881 37.0687 32.8191 36.9573 32.337 36.997C31.2948 37.0828 30.9193 37.5258 30.402 39.2795C29.8706 41.0815 29.6542 42.0688 29.6186 42.8537C29.5855 43.5826 29.5912 43.6276 29.7753 44.0988C30.013 44.7069 30.1228 45.2349 30.0952 45.6372C30.0757 45.9206 30.0528 45.9579 29.8214 46.0839C29.5786 46.2161 29.4323 46.2218 26.0021 46.2319C24.0404 46.2377 22.2556 46.2161 22.0359 46.1839H22.0359Z" fill="#666666"/>
<path d="M26.7915 31.7578C25.0639 31.7057 24.4415 31.6248 24.2617 31.4291C24.0629 31.2127 24.272 30.3063 25.4236 26.3922C25.8407 24.9746 26.9207 21.2631 27.8237 18.1445C28.7266 15.0258 29.8807 11.0669 30.3882 9.34688C31.5551 5.39228 31.6453 5.02121 31.606 4.33754C31.5786 3.86179 31.5378 3.7306 31.1586 2.89946C30.6759 1.84115 30.6127 1.58909 30.7664 1.33367C30.9091 1.09661 31.2164 0.965538 31.9365 0.834633C32.4447 0.742246 33.2347 0.725285 37.1131 0.723495C42.0255 0.721229 42.5942 0.752533 43.2108 1.05916C44.1073 1.50502 44.2151 2.31194 44.7544 12.6111C44.8317 14.0861 44.8789 15.6784 44.867 16.4036C44.8481 17.548 44.8352 17.67 44.7134 17.8475L44.5804 18.0414L43.448 18.06L42.3156 18.0787L42.079 15.7919C41.8233 13.3218 41.4863 10.6443 41.3994 10.3945L41.3455 10.2393L37.6077 10.257L33.8699 10.2748L33.0724 13.2302C32.3097 16.0567 31.6719 18.583 31.5865 19.1155C31.554 19.3187 31.5725 19.3912 31.6866 19.5069C31.9444 19.7685 32.3643 19.8141 34.9015 19.8565L37.3298 19.8971L37.4701 20.8132C37.805 23.0011 38.7716 30.9689 38.742 31.2977C38.7246 31.4903 38.6973 31.5143 38.4419 31.5614C37.4765 31.7396 30.235 31.8616 26.7915 31.7578V31.7578ZM35.3683 28.17C35.6954 28.0774 35.8906 27.8301 35.9755 27.4009C36.16 26.467 36.1042 22.8277 35.8902 21.8414C35.7934 21.3952 35.6387 21.0999 35.5018 21.0999C35.2274 21.0999 34.996 21.6741 34.6707 23.1618C34.4257 24.2822 34.3307 24.6303 33.9487 25.808C33.736 26.4635 33.6803 26.7315 33.6768 27.1139C33.6677 28.1412 34.2299 28.4923 35.3683 28.17V28.17Z" fill="#666666"/>
<path d="M56.6198 25.1348C56.6198 25.1236 56.6785 24.822 56.7502 24.4647C56.8219 24.1073 56.9343 23.3974 57 22.8871C57.1592 21.6497 57.4524 18.2213 57.4059 18.1394C57.3838 18.1004 56.4378 18.0757 55.0408 18.0776C52.45 18.0812 52.3637 18.0684 52.1609 17.6518C52.0725 17.47 52.051 17.2674 52.0565 16.6669C52.0644 15.8035 52.1184 15.3021 52.6377 11.2705C53.1804 7.05762 53.2921 5.95551 53.2992 4.74208L53.3055 3.67675L53.0751 3.12691C52.79 2.44676 52.7058 2.01913 52.7057 1.2506L52.7056 0.652588L53.7 0.667523C54.2469 0.675738 57.6062 0.715351 61.1651 0.755552C67.7816 0.830291 70.6086 0.906926 71.6111 1.03873C72.4152 1.14443 72.8945 1.3247 73.3568 1.69517C74.5733 2.67024 75.287 4.039 75.6153 6.02701C75.8653 7.54118 75.9061 8.35599 75.897 11.6496C75.8888 14.6086 75.8787 14.8772 75.7392 15.8421L75.5901 16.8731L73.2859 16.9148C70.8889 16.9582 70.4849 17.0023 70.0473 17.2683C69.6781 17.4927 69.5551 17.8027 69.4988 18.6509C69.4465 19.4375 69.3853 19.6209 69.1538 19.6842C68.9494 19.74 68.8335 19.9928 68.7532 20.5577C68.6284 21.4356 68.1453 22.1882 66.563 23.9696L65.5099 25.1552H61.0649C58.6201 25.1552 56.6198 25.146 56.6198 25.1348V25.1348ZM63.9952 19.0342C64.3698 18.9468 64.5656 18.7401 64.6171 18.3779C64.6426 18.1983 64.7229 18.0413 64.8613 17.9006C64.982 17.7779 65.0977 17.5688 65.1403 17.3963C65.4673 16.0742 65.7005 12.7595 65.5246 11.934C65.4194 11.4407 64.9701 11.0653 64.4847 11.0653C64.2548 11.0653 64.1557 11.1074 63.9725 11.2825C63.5012 11.7331 63.3064 12.3995 63.1167 14.2109C63.0465 14.8813 62.9196 16.0019 62.8346 16.7013C62.6621 18.1223 62.6425 18.6808 62.7592 18.8545C62.9151 19.0867 63.4422 19.1633 63.9952 19.0342V19.0342Z" fill="#666666"/>
<path d="M50.1898 46.1849C48.9007 46.1019 48.9413 46.118 48.845 45.6519C48.7223 45.0577 48.741 42.4065 48.8769 41.1351C49.0211 39.7859 49.3616 37.2106 49.713 34.8118C50.202 31.473 50.4847 29.4461 50.9085 26.2406C51.3594 22.8308 51.728 20.3978 51.823 20.2045C51.924 19.999 52.4091 19.9261 53.9527 19.8842L55.4204 19.8444L55.4192 20.2488C55.4185 20.4712 55.3765 21.9058 55.3257 23.4368C55.275 24.9678 55.2329 26.4182 55.2322 26.66L55.231 27.0995L58.5926 27.0519C62.513 26.9965 64.2517 26.9182 64.935 26.7663C65.5827 26.6224 66.1413 26.3172 67.0963 25.5856C68.4474 24.5504 69.2725 23.5769 69.8495 22.3371C69.9463 22.1292 70.2878 21.3251 70.6084 20.5501L71.1914 19.1411L73.0594 19.1229C74.5322 19.1086 74.9273 19.1231 74.9272 19.1917C74.927 19.3752 74.662 20.8146 74.5379 21.3062C74.2326 22.5153 73.5802 24.0302 72.8376 25.2544C72.3891 25.9938 71.9167 26.5581 71.0833 27.3501C70.3443 28.0524 70.2829 28.3139 70.5108 29.7868C70.9227 32.449 71.7374 34.5257 72.6303 35.1898C72.7574 35.2843 73.106 35.5009 73.4051 35.671C73.8946 35.9494 73.9573 36.0077 74.0335 36.2552C74.1449 36.6166 74.0989 37.2868 73.8199 39.3656C73.226 43.7921 72.7931 45.5238 72.1894 45.8871C71.6848 46.1907 71.3415 46.2212 68.425 46.2212C65.9562 46.2212 65.6378 46.2085 65.2723 46.0956C64.7286 45.9277 64.4673 45.773 64.1555 45.4341C63.4771 44.6967 63.0743 43.3231 62.4917 39.7605C61.788 35.4577 61.6478 34.6597 61.4116 33.6138C61.2714 32.9927 61.1152 32.3973 61.0646 32.2907C60.9602 32.0709 60.8184 32.0395 60.7332 32.2172C60.3661 32.9836 59.4588 40.4538 59.4373 42.8877C59.4265 44.1134 59.4756 44.4032 59.7478 44.7173C60.0691 45.0882 60.1968 45.7191 59.9951 45.9388C59.7563 46.1988 59.5428 46.2117 55.231 46.2256C52.9221 46.2331 50.6535 46.2148 50.1897 46.1849H50.1898Z" fill="#666666"/>
<path d="M83.6074 46.1921C83.2949 46.1633 82.9398 46.1156 82.8183 46.0861C82.2638 45.9514 81.6576 45.4406 81.4699 44.9497C81.2075 44.2635 81.0863 43.058 80.7339 37.6298C80.4275 32.9103 80.2956 31.0297 80.0086 27.2858C79.6665 22.8231 79.5982 21.7217 79.5897 20.5343C79.5826 19.5338 79.593 19.4188 79.6979 19.3353C79.8932 19.1798 80.2374 19.1076 80.7853 19.1072C81.5926 19.1066 81.6538 19.22 81.8399 21.0625C81.9748 22.3977 82.0569 23.8629 82.1196 26.0486C82.1789 28.1219 82.2266 28.4668 82.5194 28.9398C82.7138 29.2539 83.2293 29.5222 83.82 29.6167C84.2896 29.6918 85.7612 29.8288 86.0985 29.8288H86.2671L86.3779 31.5643C86.4388 32.5188 86.5145 33.5317 86.5462 33.8152C86.7453 35.5999 87.1767 36.2134 88.2764 36.2758C88.8755 36.3097 89.1662 36.2359 89.6356 35.9304C90.111 35.6209 90.5091 35.0277 90.8085 34.1824C91.2023 33.0704 91.4547 32.9022 92.7427 32.8928C93.7919 32.8851 93.7585 32.8133 93.4003 34.3046C92.9948 35.9931 92.5666 37.613 91.3298 42.1388L90.2477 46.0979L88.4111 46.1431C87.401 46.1679 86.0348 46.2009 85.3751 46.2163C84.7154 46.2318 83.9199 46.2209 83.6074 46.1921V46.1921Z" fill="#666666"/>
<path d="M88.2727 33.1614C88.1283 32.9214 88.0651 31.8889 88.0612 29.7082L88.058 27.9041H86.101C85.0246 27.9041 84.144 27.8921 84.144 27.8776C84.144 27.863 84.06 26.8965 83.9575 25.7297C83.8549 24.563 83.7115 22.8042 83.6389 21.8214C83.4066 18.678 83.2533 17.3871 83.0954 17.2445C82.8756 17.0459 82.2583 16.9653 80.6656 16.9274L79.0495 16.8889L79.0109 15.678C78.9703 14.4075 78.8174 12.1731 78.5538 9.00302C78.2188 4.97249 78.0073 3.75338 77.5125 3.00117C76.9873 2.20262 76.7449 1.31159 76.9769 1.03244C77.2156 0.745352 77.5873 0.720783 81.6504 0.723565C86.438 0.726843 88.1322 0.837994 88.3819 1.1652C88.4385 1.23939 88.5449 1.54281 88.6185 1.83947C89.0267 3.48663 89.1881 6.23956 89.3245 13.8829C89.3613 15.9431 89.411 17.7679 89.4349 17.9381C89.5063 18.4457 89.6393 18.3403 89.8681 17.5944C90.4258 15.7771 92.0798 8.631 92.6084 5.75582C92.8054 4.68405 92.8064 4.66785 92.7139 4.07191C92.6626 3.74095 92.5273 3.22274 92.4133 2.92032C92.2512 2.4903 92.2046 2.26498 92.1995 1.88643C92.1921 1.33909 92.2913 1.10278 92.6019 0.92791C92.9348 0.740468 94.2844 0.671675 96.9714 0.705182C99.0487 0.731086 99.5887 0.757476 99.9125 0.848907C100.659 1.05974 100.95 1.29448 101.201 1.89021C101.331 2.19648 101.345 2.32823 101.337 3.12651C101.32 4.90305 100.879 6.85991 98.3403 16.426C96.2679 24.2352 95.055 28.6392 94.783 29.3427C94.7016 29.5533 94.6154 29.8395 94.5914 29.9788C94.5159 30.4169 94.4592 30.439 92.7665 30.6903C90.3746 31.0454 90.1825 31.1361 89.825 32.079C89.443 33.0867 89.2171 33.3331 88.6749 33.3335C88.4259 33.3338 88.3594 33.3053 88.2727 33.1614H88.2727Z" fill="#666666"/>
<path d="M110.943 33.6963C110.77 33.6504 110.593 33.4702 110.522 33.268C110.474 33.1322 110.091 30.8632 110.09 30.7154C110.09 30.6932 107.64 30.6547 104.645 30.6299C98.6107 30.5799 97.2715 30.5121 97.122 30.2487C97.0337 30.0931 98.1789 26.1036 98.9533 23.8691C99.1393 23.3323 99.3184 22.7137 99.3513 22.4945C99.4254 22.0007 100.137 19.5403 101.654 14.5354C104.005 6.77924 104.03 6.65844 104.03 2.91068V0.674805L109.096 0.705984C114.493 0.739201 114.696 0.751344 115.517 1.09121C116.429 1.46848 116.785 2.24531 116.967 4.26009C117.123 5.97581 117.416 11.6873 117.537 15.3601C117.572 16.4186 117.619 17.7693 117.64 18.3618L117.68 19.4389L117.405 19.4767C117.253 19.4975 116.447 19.5471 115.614 19.5869C114.781 19.6267 113.964 19.6769 113.799 19.6984L113.499 19.7375V26.7416V33.7457L112.284 33.7377C111.616 33.7333 111.012 33.7147 110.943 33.6963V33.6963ZM107.631 27.9351C107.87 27.6997 107.911 27.3393 107.908 25.4636C107.906 23.5559 107.853 23.0924 107.636 23.0924C107.359 23.0924 107.11 23.7555 107.03 24.7025C106.981 25.2865 106.897 25.5667 106.773 25.5667C106.563 25.5667 106.311 26.9518 106.422 27.491C106.489 27.8156 106.633 28.0187 106.83 28.0656C107.084 28.1263 107.507 28.0574 107.631 27.9351Z" fill="#666666"/>
<path d="M94.6865 46.1789C94.2525 46.1476 93.8374 46.0928 93.7642 46.0572C93.5045 45.9307 93.4147 45.003 93.5526 43.8721C93.7906 41.9204 94.2169 40.18 95.5824 35.585L96.4148 32.7842H102.453H108.491L108.637 33.549C108.977 35.3361 109.435 35.71 111.258 35.6898C112.028 35.6813 115.243 35.376 115.308 35.3053C115.331 35.28 115.516 23.7492 115.518 22.2168L115.519 21.4436L116.387 21.4446C116.865 21.4451 117.315 21.463 117.388 21.4844C117.547 21.5308 117.477 20.593 117.981 29.4851C118.494 38.5373 118.641 40.7295 118.835 42.2691C119.004 43.607 119.096 43.8941 119.51 44.3867C119.831 44.7695 119.998 45.1774 120 45.5838C120.003 46.2283 119.836 46.251 115.077 46.2523C110.548 46.2536 109.48 46.1761 109.108 45.8195C108.808 45.5318 108.594 44.2102 108.385 41.356C108.239 39.3506 108.167 38.7603 107.998 38.1633C107.854 37.6565 107.559 37.2947 107.203 37.187C106.496 36.9734 104.167 37.2395 103.829 37.5725C103.69 37.7095 103.295 38.797 102.856 40.2538C102.36 41.9009 102.19 42.633 102.187 43.1356C102.185 43.5421 102.21 43.6274 102.477 44.128C103.035 45.1743 103.167 45.8034 102.872 46.0138C102.791 46.0717 102.514 46.1487 102.257 46.1851C101.696 46.2644 95.8058 46.2596 94.6865 46.1789L94.6865 46.1789Z" fill="#666666"/>
<path d="M77.705 53.61C77.5298 53.4192 77.5225 52.6558 77.6942 52.4865C77.8009 52.3814 78.8704 52.3728 91.7991 52.3728C104.107 52.3728 105.8 52.3851 105.883 52.4752C106.107 52.7197 106.081 53.4619 105.841 53.6447C105.722 53.7351 104.033 53.7474 91.7688 53.7474C77.9155 53.7474 77.8305 53.7466 77.705 53.61H77.705Z" fill="#666666"/>
<path d="M14.134 53.61C13.9587 53.4192 13.9514 52.6558 14.1232 52.4865C14.2298 52.3814 15.2993 52.3728 28.228 52.3728C40.7093 52.3728 42.2279 52.3842 42.3142 52.4781C42.4397 52.6148 42.5039 52.9971 42.4519 53.2987C42.3677 53.7874 43.6382 53.7474 28.1977 53.7474C14.3444 53.7474 14.2595 53.7466 14.134 53.61V53.61Z" fill="#666666"/>
</mask>
<g mask="url(#mask0)">
<ellipse cx="59.9311" cy="28.654" rx="64.5409" ry="70.268" fill="url(#paint0_linear)"/>
</g>
<defs>
<linearGradient id="paint0_linear" x1="59.9311" y1="-41.614" x2="59.9311" y2="98.922" gradientUnits="userSpaceOnUse">
<stop offset="0.3125" stop-color="#00A7CC" stop-opacity="0.52"/>
<stop offset="0.5625" stop-color="#585C66" stop-opacity="0.62"/>
</linearGradient>
</defs>
</svg>
