<svg width="163" height="71" viewBox="0 0 163 71" fill="none" xmlns="http://www.w3.org/2000/svg">
<mask id="mask0" mask-type="alpha" maskUnits="userSpaceOnUse" x="0" y="0" width="163" height="71">
<path d="M60.4028 69.4795H62.4436C64.2708 69.4795 65.3149 68.6982 65.3149 67.2068C65.3149 66.1178 64.5911 65.4786 63.4284 65.3129V65.2656C64.3538 65.0288 64.8166 64.3896 64.8166 63.5611C64.8166 62.2827 63.9148 61.6672 62.3012 61.6672H60.4028V69.4795ZM60.7825 65.1472V61.9986H62.1351C63.7013 61.9986 64.4369 62.4484 64.4369 63.5611C64.4369 64.6027 63.7724 65.1472 62.0639 65.1472H60.7825ZM60.7825 69.148V65.4786H62.3012C63.986 65.4786 64.9352 66.0468 64.9352 67.2305C64.9352 68.5562 63.986 69.148 62.3012 69.148H60.7825ZM69.9376 69.4795H70.3172V65.7864H72.0732L74.2801 69.4795H74.731L72.5004 65.7627C73.8055 65.6443 74.6123 64.9223 74.6123 63.6794C74.6123 62.2353 73.6394 61.6672 72.097 61.6672H69.9376V69.4795ZM70.3172 65.455V61.9986H71.9546C73.4021 61.9986 74.2089 62.4484 74.2089 63.6794C74.2089 64.8868 73.4021 65.455 71.9546 65.455H70.3172ZM81.513 69.6215C83.1978 69.6215 84.4081 68.0117 84.4081 65.5496C84.4081 63.0876 83.1978 61.5251 81.513 61.5251C79.8282 61.5251 78.618 63.0876 78.618 65.5496C78.618 68.0117 79.8282 69.6215 81.513 69.6215ZM81.513 69.2664C80.0299 69.2664 79.0214 67.7986 79.0214 65.5496C79.0214 63.3007 80.0299 61.8802 81.513 61.8802C82.9961 61.8802 84.0047 63.3007 84.0047 65.5496C84.0047 67.7986 82.9961 69.2664 81.513 69.2664ZM91.0003 69.6215C92.6851 69.6215 93.8953 68.0117 93.8953 65.5496C93.8953 63.0876 92.6851 61.5251 91.0003 61.5251C89.3155 61.5251 88.1053 63.0876 88.1053 65.5496C88.1053 68.0117 89.3155 69.6215 91.0003 69.6215ZM91.0003 69.2664C89.5172 69.2664 88.5087 67.7986 88.5087 65.5496C88.5087 63.3007 89.5172 61.8802 91.0003 61.8802C92.4834 61.8802 93.4919 63.3007 93.4919 65.5496C93.4919 67.7986 92.4834 69.2664 91.0003 69.2664ZM97.9129 69.4795H98.2926L99.7401 66.9701C99.9537 66.5913 100.167 66.2125 100.428 65.739H100.476C100.76 66.2125 100.998 66.5913 101.211 66.9701L102.659 69.4795H103.062L100.689 65.455L102.896 61.6672H102.516L101.14 64.0819C100.927 64.437 100.784 64.6974 100.547 65.1235H100.499C100.238 64.6974 100.072 64.437 99.8587 64.0819L98.4824 61.6672H98.079L100.286 65.4313L97.9129 69.4795Z" fill="black" stroke="black"/>
<path d="M0.419128 38.6839C0.419128 38.6224 0.494454 37.9583 0.586519 37.2082C0.678584 36.4581 0.85329 34.9397 0.974756 33.834C1.57221 28.3953 3.93764 12.9298 4.5457 10.4866C5.02052 8.57882 6.92749 4.72455 8.2576 2.98434C9.0842 1.90289 11.2486 0.611251 12.6814 0.344385C14.6749 -0.0269048 25.3863 -0.0513877 29.7708 0.305324C31.4677 0.44338 31.4122 0.419277 31.4456 1.03225C31.5218 2.43039 30.828 6.99039 30.1317 9.66676C29.4876 12.143 29 12.8444 27.6878 13.1825C27.2228 13.3024 26.5306 13.3326 23.5114 13.3649C20.9132 13.3928 19.8699 13.4317 19.8124 13.5028C19.7684 13.5573 19.5135 14.115 19.246 14.742C18.2567 17.0612 17.6886 19.9437 16.2377 30.0058C15.7882 33.1229 15.3058 36.3415 15.1657 37.1582C15.0256 37.9749 14.911 38.6774 14.911 38.7194C14.911 38.7636 11.855 38.7957 7.66504 38.7957C1.75608 38.7957 0.419128 38.7751 0.419128 38.6839Z" fill="#666666"/>
<path d="M11.8668 56.677C7.28683 56.5368 5.3154 56.3413 4.53456 55.9502C2.06723 54.7142 0.44222 51.2418 0.0698265 46.4097C-0.114708 44.0153 0.0756796 42.1336 0.532723 41.8349C0.890096 41.6013 3.00882 41.506 7.96513 41.5005C14.0424 41.4939 14.2821 41.5268 15.3507 42.5138C15.9355 43.0539 16.3379 43.205 17.5263 43.3309C18.5573 43.44 21.2338 43.4367 22.457 43.3247C23.8309 43.1989 24.4174 43.0484 25.4785 42.5494C25.9849 42.3112 26.5477 42.0965 26.7291 42.0722C27.0294 42.0321 27.0678 42.05 27.1587 42.2727C27.5081 43.1293 27.5128 44.6577 27.1745 47.4324C27.0337 48.5873 26.8434 50.3214 26.7515 51.286C26.6298 52.5643 26.5256 53.2252 26.3671 53.7241C26.1698 54.3456 26.0964 54.4604 25.5682 54.9737C24.3933 56.1155 23.8259 56.4138 22.4995 56.5869C21.5302 56.7134 14.8909 56.7697 11.8668 56.6771L11.8668 56.677Z" fill="#666666"/>
<path d="M29.932 56.6716C28.8293 56.5236 28.5286 56.296 28.2079 55.3659C27.8321 54.2763 27.8684 53.9003 28.5939 51.3715C29.4768 48.2936 30.9803 43.923 31.6722 42.4229L31.9524 41.8152L32.3711 41.7608C33.4119 41.6256 37.4112 41.5223 44.5805 41.4456C53.5798 41.3493 54.6759 41.2837 55.0006 40.8212C55.193 40.5471 55.1619 39.2493 54.9189 37.4187C54.5303 34.491 53.1503 25.3294 52.9358 24.2528C52.6743 22.9409 52.3453 22.2107 51.888 21.9269C51.5787 21.7351 51.4946 21.7279 49.0784 21.6864C46.8355 21.6479 46.5633 21.6278 46.3438 21.4841L46.0999 21.3245L46.1508 20.2864C46.204 19.1984 46.4989 17.7535 46.9385 16.4257C47.2006 15.6341 47.4136 15.2584 47.7097 15.0648C48.4249 14.5973 52.3131 14.1424 53.1642 14.4267C54.3771 14.8318 54.688 15.8625 55.0829 20.7882C55.1546 21.6821 55.223 22.6815 55.2348 23.0089L55.2565 23.6043L55.6423 23.7191C55.8593 23.7837 56.7975 23.8669 57.7861 23.9093C59.6443 23.989 60.3291 24.0895 60.6211 24.3254C60.782 24.4554 60.8117 24.6314 60.9198 26.0936C61.0905 28.404 61.3471 32.9774 61.6422 38.967C61.9136 44.4745 61.9202 44.5946 62.1208 47.6929C62.3389 51.0605 62.5741 52.5587 63.0219 53.4345C63.1174 53.6212 63.4097 54.0707 63.6714 54.4334C64.5241 55.6149 64.6481 56.0136 64.2581 56.3197C63.8016 56.6779 63.1191 56.7182 57.5288 56.7176C52.2417 56.7169 50.1539 56.6305 49.6398 56.3905C49.1861 56.1788 48.8505 54.5981 48.4834 50.9437C48.2258 48.3789 47.9562 46.4553 47.8128 46.1578C47.6875 45.898 47.2367 45.5856 46.8201 45.4698C46.3029 45.3261 44.5792 45.1874 43.9244 45.2368C42.5087 45.3437 41.9986 45.895 41.296 48.0779C40.5741 50.3207 40.2802 51.5496 40.2318 52.5266C40.1869 53.4338 40.1946 53.4898 40.4447 54.0763C40.7676 54.8331 40.9167 55.4903 40.8792 55.991C40.8528 56.3438 40.8217 56.3903 40.5074 56.5471C40.1775 56.7116 39.9788 56.7187 35.3195 56.7313C32.6548 56.7385 30.2304 56.7116 29.932 56.6716H29.932Z" fill="#666666"/>
<path d="M36.3915 38.7161C34.0449 38.6513 33.1994 38.5506 32.9552 38.307C32.6852 38.0376 32.9693 36.9095 34.5335 32.0377C35.1 30.2733 36.5671 25.6537 37.7936 21.772C39.0201 17.8903 40.5877 12.9627 41.2771 10.8219C42.8621 5.89969 42.9847 5.43783 42.9312 4.58688C42.894 3.99473 42.8385 3.83144 42.3236 2.79694C41.6678 1.47969 41.582 1.16596 41.7908 0.848048C41.9846 0.552983 42.4021 0.38984 43.3802 0.226907C44.0705 0.111915 45.1436 0.0908037 50.4117 0.0885767C57.0845 0.0857559 57.8569 0.124718 58.6944 0.506373C59.9122 1.06131 60.0586 2.06567 60.7912 14.8847C60.8961 16.7207 60.9603 18.7025 60.9441 19.6052C60.9185 21.0295 60.9009 21.1815 60.7355 21.4024L60.5548 21.6437L59.0166 21.6669L57.4785 21.6902L57.157 18.8438C56.8098 15.7693 56.3519 12.4368 56.234 12.1258L56.1607 11.9326L51.0836 11.9547L46.0064 11.9768L44.9232 15.6553C43.8871 19.1735 43.0208 22.3179 42.9048 22.9806C42.8606 23.2335 42.8857 23.3238 43.0407 23.4678C43.3909 23.7933 43.9612 23.8502 47.4076 23.9029L50.7061 23.9534L50.8966 25.0937C51.3516 27.8169 52.6645 37.7342 52.6243 38.1434C52.6007 38.3832 52.5636 38.4131 52.2167 38.4717C50.9053 38.6935 41.0689 38.8454 36.3915 38.7161ZM48.0417 34.2506C48.486 34.1353 48.7512 33.8275 48.8664 33.2932C49.1171 32.1308 49.0413 27.6011 48.7507 26.3735C48.6192 25.8181 48.4091 25.4505 48.2231 25.4505C47.8504 25.4505 47.536 26.1652 47.0941 28.017C46.7613 29.4115 46.6323 29.8447 46.1134 31.3105C45.8246 32.1264 45.7488 32.46 45.7441 32.936C45.7317 34.2147 46.4953 34.6516 48.0417 34.2506Z" fill="#666666"/>
<path d="M76.9084 30.4724C76.9084 30.4584 76.9881 30.083 77.0855 29.6383C77.1829 29.1935 77.3356 28.3099 77.4248 27.6747C77.6412 26.1346 78.0394 21.8672 77.9762 21.7653C77.9462 21.7168 76.6612 21.6861 74.7636 21.6885C71.2445 21.6929 71.1272 21.677 70.8518 21.1584C70.7317 20.9322 70.7025 20.68 70.7099 19.9326C70.7207 18.858 70.794 18.2339 71.4994 13.2158C72.2366 7.97217 72.3883 6.60041 72.398 5.09009L72.4065 3.7641L72.0935 3.07972C71.7063 2.23316 71.5919 1.7009 71.5918 0.744331L71.5917 0L72.9423 0.0185899C73.6852 0.0288144 78.2483 0.0781193 83.0825 0.128156C92.0699 0.221183 95.9099 0.316568 97.2716 0.480616C98.3638 0.612185 99.0149 0.836561 99.6428 1.29768C101.295 2.51132 102.265 4.21498 102.711 6.6894C103.05 8.57404 103.106 9.58821 103.093 13.6876C103.082 17.3707 103.068 17.705 102.879 18.906L102.676 20.1892L99.5465 20.2412C96.2906 20.2952 95.7419 20.35 95.1474 20.6811C94.646 20.9604 94.4789 21.3463 94.4023 22.402C94.3313 23.3811 94.2482 23.6094 93.9337 23.6881C93.6561 23.7576 93.4987 24.0722 93.3896 24.7754C93.2201 25.8681 92.5638 26.8049 90.4146 29.022L88.9842 30.4977H82.9463C79.6255 30.4977 76.9084 30.4863 76.9084 30.4724V30.4724ZM86.9266 22.8791C87.4355 22.7703 87.7015 22.513 87.7714 22.0622C87.806 21.8387 87.9152 21.6432 88.1031 21.4682C88.2671 21.3154 88.4242 21.0552 88.4821 20.8404C88.9263 19.1949 89.243 15.0691 89.0041 14.0417C88.8613 13.4276 88.2509 12.9605 87.5916 12.9605C87.2794 12.9605 87.1447 13.0128 86.8958 13.2308C86.2556 13.7916 85.9911 14.6211 85.7334 16.8757C85.638 17.7101 85.4656 19.1049 85.3502 19.9754C85.1158 21.744 85.0892 22.4392 85.2478 22.6555C85.4596 22.9445 86.1755 23.0398 86.9266 22.8791Z" fill="#666666"/>
<path d="M68.1745 56.6729C66.4235 56.5696 66.4787 56.5897 66.3479 56.0094C66.1812 55.2699 66.2066 51.97 66.3912 50.3875C66.5871 48.7082 67.0496 45.5029 67.5268 42.5171C68.1911 38.3614 68.5751 35.8386 69.1508 31.8487C69.7633 27.6047 70.2639 24.5764 70.393 24.3358C70.5302 24.08 71.1891 23.9892 73.2858 23.9371L75.2795 23.8875L75.2778 24.3909C75.2768 24.6678 75.2198 26.4534 75.1508 28.359C75.0819 30.2646 75.0247 32.0698 75.0238 32.3707L75.0222 32.9178L79.5884 32.8586C84.9136 32.7896 87.2754 32.6921 88.2035 32.5031C89.0832 32.324 89.842 31.9441 91.1392 31.0334C92.9744 29.745 94.0952 28.5333 94.879 26.9902C95.0104 26.7314 95.4743 25.7305 95.9098 24.766L96.7017 23.0123L99.239 22.9896C101.24 22.9717 101.776 22.9898 101.776 23.0751C101.776 23.3036 101.416 25.0952 101.247 25.707C100.833 27.2119 99.9465 29.0976 98.9379 30.6212C98.3286 31.5416 97.687 32.2439 96.5549 33.2298C95.5511 34.1039 95.4677 34.4293 95.7772 36.2626C96.3367 39.5762 97.4433 42.161 98.6563 42.9876C98.8289 43.1053 99.3024 43.3747 99.7086 43.5865C100.374 43.9331 100.459 44.0055 100.562 44.3136C100.714 44.7634 100.651 45.5976 100.272 48.1851C99.4654 53.6946 98.8773 55.8501 98.0574 56.3022C97.372 56.6801 96.9056 56.718 92.944 56.718C89.5906 56.718 89.1581 56.7023 88.6616 56.5618C87.9231 56.3528 87.5682 56.1601 87.1447 55.7383C86.2231 54.8206 85.6759 53.1109 84.8846 48.6766C83.9288 43.321 83.7383 42.3278 83.4175 41.026C83.227 40.2529 83.0149 39.5118 82.9461 39.3792C82.8043 39.1056 82.6117 39.0664 82.496 39.2877C81.9973 40.2416 80.765 49.5395 80.7357 52.569C80.721 54.0945 80.7878 54.4552 81.1575 54.8462C81.5939 55.3079 81.7674 56.0932 81.4935 56.3665C81.169 56.6902 80.8791 56.7062 75.0222 56.7236C71.8859 56.7329 68.8044 56.71 68.1744 56.6729H68.1745Z" fill="#666666"/>
<path d="M113.567 56.6819C113.142 56.646 112.66 56.5867 112.495 56.5499C111.741 56.3823 110.918 55.7465 110.663 55.1355C110.307 54.2815 110.142 52.781 109.663 46.0247C109.247 40.1504 109.068 37.8096 108.678 33.1497C108.214 27.5951 108.121 26.2243 108.109 24.7463C108.1 23.5011 108.114 23.3579 108.256 23.254C108.522 23.0604 108.989 22.9705 109.733 22.97C110.83 22.9693 110.913 23.1105 111.166 25.4037C111.349 27.0657 111.461 28.8893 111.546 31.6099C111.626 34.1904 111.691 34.6197 112.089 35.2084C112.353 35.5994 113.053 35.9333 113.855 36.051C114.493 36.1445 116.492 36.315 116.95 36.315H117.179L117.33 38.4751C117.413 39.6631 117.515 40.9239 117.558 41.2768C117.829 43.498 118.415 44.2617 119.909 44.3393C120.722 44.3816 121.117 44.2897 121.755 43.9094C122.401 43.5242 122.941 42.7859 123.348 41.7338C123.883 40.3497 124.226 40.1403 125.975 40.1286C127.401 40.119 127.355 40.0297 126.869 41.8859C126.318 43.9874 125.736 46.0038 124.056 51.6369L122.586 56.5647L120.092 56.6209C118.72 56.6518 116.864 56.6928 115.968 56.7121C115.072 56.7313 113.991 56.7177 113.567 56.6819V56.6819Z" fill="#666666"/>
<path d="M119.904 40.4633C119.708 40.1646 119.622 38.8795 119.616 36.1653L119.612 33.9197H116.954C115.492 33.9197 114.295 33.9048 114.295 33.8867C114.295 33.8686 114.181 32.6656 114.042 31.2134C113.903 29.7611 113.708 27.572 113.609 26.3487C113.294 22.4362 113.086 20.8296 112.871 20.652C112.573 20.4048 111.734 20.3045 109.571 20.2573L107.375 20.2094L107.323 18.7023C107.268 17.1209 107.06 14.3398 106.702 10.3941C106.247 5.37737 105.96 3.85998 105.288 2.92373C104.574 1.9298 104.245 0.820753 104.56 0.473301C104.884 0.115968 105.389 0.0853884 110.908 0.0888507C117.412 0.0929304 119.713 0.231278 120.052 0.638537C120.129 0.730882 120.273 1.10854 120.373 1.47779C120.928 3.52796 121.147 6.95446 121.332 16.4679C121.382 19.0322 121.45 21.3035 121.482 21.5153C121.579 22.1472 121.76 22.0159 122.071 21.0875C122.828 18.8256 125.075 9.93102 125.793 6.35236C126.061 5.01836 126.062 4.9982 125.936 4.25644C125.867 3.84451 125.683 3.1995 125.528 2.82309C125.308 2.28786 125.245 2.00741 125.238 1.53624C125.227 0.854974 125.362 0.560849 125.784 0.343193C126.236 0.109889 128.07 0.0242649 131.719 0.0659702C134.541 0.0982126 135.275 0.131059 135.714 0.24486C136.728 0.507278 137.123 0.799458 137.465 1.54095C137.641 1.92215 137.661 2.08613 137.65 3.07974C137.626 5.29094 137.027 7.72659 133.579 19.6332C130.764 29.3531 129.116 34.8346 128.747 35.7103C128.636 35.9725 128.519 36.3287 128.487 36.502C128.384 37.0473 128.307 37.0748 126.008 37.3876C122.759 37.8296 122.498 37.9425 122.012 39.1162C121.493 40.3703 121.186 40.677 120.45 40.6776C120.112 40.6779 120.021 40.6424 119.904 40.4633H119.904Z" fill="#666666"/>
<path d="M150.697 41.1298C150.462 41.0728 150.222 40.8484 150.125 40.5967C150.06 40.4278 149.54 37.6035 149.539 37.4196C149.539 37.3919 146.211 37.344 142.143 37.3132C133.946 37.251 132.127 37.1665 131.924 36.8387C131.804 36.645 133.359 31.6794 134.411 28.8982C134.664 28.2301 134.907 27.4601 134.952 27.1872C135.053 26.5726 136.02 23.5102 138.08 17.2807C141.274 7.62687 141.307 7.47653 141.307 2.81178V0.0288506L148.189 0.0676585C155.52 0.109003 155.795 0.124117 156.911 0.547144C158.149 1.01671 158.632 1.98362 158.88 4.49135C159.091 6.62687 159.49 13.7358 159.655 18.3073C159.702 19.6247 159.765 21.306 159.795 22.0434L159.848 23.3841L159.474 23.4311C159.269 23.457 158.174 23.5187 157.042 23.5683C155.91 23.6178 154.801 23.6803 154.577 23.707L154.17 23.7556V32.4735V41.1913L152.519 41.1814C151.611 41.1759 150.791 41.1527 150.697 41.1298V41.1298ZM146.199 33.9591C146.523 33.666 146.578 33.2174 146.575 30.8828C146.572 28.5084 146.5 27.9314 146.205 27.9314C145.829 27.9314 145.49 28.7568 145.382 29.9355C145.315 30.6624 145.202 31.0111 145.033 31.0111C144.748 31.0111 144.405 32.7351 144.556 33.4062C144.647 33.8103 144.843 34.063 145.111 34.1215C145.456 34.197 146.03 34.1113 146.199 33.9591Z" fill="#666666"/>
<path d="M128.616 56.6654C128.026 56.6264 127.463 56.5583 127.363 56.5139C127.01 56.3565 126.888 55.2018 127.076 53.7942C127.399 51.365 127.978 49.1987 129.833 43.4795L130.963 39.9934H139.165H147.367L147.565 40.9453C148.027 43.1697 148.649 43.6351 151.125 43.6099C152.171 43.5993 156.538 43.2193 156.627 43.1313C156.658 43.0999 156.91 28.7478 156.912 26.8405L156.914 25.878L158.093 25.8792C158.741 25.8799 159.353 25.9022 159.452 25.9288C159.668 25.9865 159.574 24.8193 160.258 35.8871C160.955 47.1541 161.153 49.8827 161.418 51.799C161.647 53.4642 161.772 53.8215 162.334 54.4347C162.771 54.9112 162.998 55.4188 163 55.9247C163.004 56.7269 162.777 56.7551 156.313 56.7568C150.162 56.7584 148.711 56.6619 148.205 56.218C147.797 55.8599 147.507 54.215 147.223 50.6624C147.024 48.1664 146.927 47.4317 146.697 46.6885C146.501 46.0578 146.102 45.6075 145.618 45.4734C144.658 45.2075 141.493 45.5388 141.034 45.9532C140.845 46.1237 140.309 47.4773 139.713 49.2906C139.039 51.3407 138.808 52.2519 138.804 52.8774C138.801 53.3834 138.835 53.4896 139.198 54.1127C139.956 55.415 140.136 56.198 139.735 56.4599C139.625 56.5319 139.248 56.6279 138.899 56.6731C138.136 56.7718 130.136 56.7658 128.616 56.6654L128.616 56.6654Z" fill="#666666"/>
<path d="M105.549 65.9145C105.311 65.677 105.301 64.7269 105.534 64.5162C105.679 64.3854 107.132 64.3747 124.693 64.3747C141.412 64.3747 143.711 64.39 143.823 64.5021C144.128 64.8064 144.093 65.7302 143.767 65.9578C143.606 66.0703 141.311 66.0856 124.652 66.0856C105.835 66.0856 105.719 66.0846 105.549 65.9145H105.549Z" fill="#666666"/>
<path d="M19.1986 65.9145C18.9606 65.677 18.9506 64.7269 19.1839 64.5162C19.3289 64.3854 20.7816 64.3747 38.3431 64.3747C55.2968 64.3747 57.3595 64.3888 57.4767 64.5057C57.6473 64.6759 57.7344 65.1516 57.6638 65.5271C57.5494 66.1354 59.2753 66.0856 38.3019 66.0856C19.4845 66.0856 19.3691 66.0846 19.1986 65.9145Z" fill="#666666"/>
</mask>
<g mask="url(#mask0)">
<ellipse cx="81.4062" cy="34.8527" rx="87.6681" ry="87.4607" fill="url(#paint0_linear)"/>
</g>
<defs>
<linearGradient id="paint0_linear" x1="81.4062" y1="-52.608" x2="81.4062" y2="122.313" gradientUnits="userSpaceOnUse">
<stop offset="0.3125" stop-color="#C79D9D"/>
<stop offset="0.520833" stop-color="#585C66"/>
</linearGradient>
</defs>
</svg>
